<svg xmlns="http://www.w3.org/2000/svg" viewBox="0 0 841.9 1190.6"><g fill="#FFF"><path d="M33.1 607.8l-7-20.5h-2.9v20.5H7.9v-64.3h15.8c17.9 0 23.6 8.6 23.6 21.5 0 8-2.4 14.2-7.2 17.4l9.5 25.4H33.1zm-9-34c5.2 0 8-1.5 8-8.7 0-4.7-2-7.5-6.8-7.5h-2.1v16.3h.9zM53.2 607.8v-64.3h33V558H69.3v8.9h13.4l-.8 14.5H69.3v11.8h16.9v14.5h-33zM101.4 607.8l-14.2-64.3H104l6.3 39.6 6.5-39.6H133l-14.9 64.3h-16.7zM136.3 607.8v-64.3h16.5v64.3h-16.5zM160 607.8v-64.3h33V558h-16.9v8.9h13.4l-.8 14.5h-12.6v11.8H193v14.5h-33zM235.5 607.8l-3.7-24.6-5.5 24.6h-18.5l-12.6-64.3H213l5.2 40.7 8.1-41h13l5.8 41.5 7.7-41.1h16.9l-15.4 64.3h-18.8zM316.6 607.8l-2.9-4c-4.9 3.5-9.8 5-16.1 5-12.8 0-18.3-8-18.3-17.9 0-9.8 5.9-15 12.3-19.2l-1-1.5c-3.3-4.8-4.4-9-4.4-12.8 0-9 7-15 17.9-15 10.6 0 18.2 5.1 18.2 14.7 0 7.5-4.1 12.1-10.8 17.4l5.1 7.4 8.5-8.6 9.1 10.2-9.6 10 10 14.3h-18zm-17.2-24.7c-3 2.2-4.1 3.9-4.1 6.5 0 3.1 1.6 5.1 4.7 5.1 1.7 0 3.7-.8 5.8-2.4l-6.4-9.2zm5.2-18.2c2.4-1.8 4-3.6 4-6.5 0-2.3-1.3-3.7-3.8-3.7-2.1 0-3.5 1-3.5 3.6 0 1.5.8 3.1 2.8 5.8l.5.8zM382.6 607.8l-3.7-24.6-5.5 24.6h-18.5l-12.6-64.3h17.9l5.2 40.7 8.1-41h13l5.8 41.5 7.7-41.1h16.9l-15.4 64.3h-18.9zM421.6 607.8v-64.3h16.5v64.3h-16.5zM476.4 607.8l-14.8-30.1v30.1h-16.2v-64.3H461l14.9 30.7v-30.7H492v64.3h-15.6z"/></g><path fill="#FFF" d="M15.5 643.5l-2.2-6.2h-1.4v6.2h-4v-18.3h4.5c5.1 0 6.8 2.4 6.8 5.9 0 2.3-.7 4.1-2.3 5l2.9 7.4h-4.3zm-2.9-9.5c1.8 0 2.7-.6 2.7-2.9 0-1.6-.7-2.5-2.4-2.5h-1v5.4h.7zM31 642.4c-1.2.8-2.9 1.3-4.6 1.3-3.9 0-5.9-2.8-5.9-7 0-4.3 1.7-6.8 5.3-6.8 3.7 0 5.4 2.7 4.8 8h-6.4c.1 2 1.4 2.4 2.6 2.4 1 0 2.2-.3 3.1-.8l1.1 2.9zm-3.4-7.3c-.1-1.6-.7-2-1.7-2-1.1 0-1.6.4-1.7 2h3.4zM35.2 643.5l-3.5-13.4h4.1l1.4 8 1.4-8h4.1l-3.5 13.4h-4zM45.6 628.4c-1.2 0-2.1-.5-2.1-2s.9-2 2.1-2 2.1.5 2.1 2-.8 2-2.1 2zm-1.8 15.1v-13.4h3.8v13.4h-3.8zM59.6 642.4c-1.2.8-2.9 1.3-4.6 1.3-3.9 0-5.9-2.8-5.9-7 0-4.3 1.7-6.8 5.3-6.8 3.7 0 5.4 2.7 4.8 8h-6.4c.1 2 1.4 2.4 2.6 2.4 1 0 2.2-.3 3.1-.8l1.1 2.9zm-3.5-7.3c-.1-1.6-.7-2-1.7-2-1.1 0-1.6.4-1.7 2h3.4zM70.1 643.5l-2-7-1.9 7h-3.4l-2.4-13.4h3.8l1 7.2 1.8-7.2h2.4l1.8 7.2 1-7.2H76l-2.4 13.4h-3.5zM82.2 645.2c.4.1.6.1.8.1.9 0 1.2-.3 1.5-1.5l.3-1-4.2-12.5h4.1l1.7 6.8 1.4-6.8h4L88 643c-1.3 4.3-2 5.6-4.3 5.6-.5 0-1.2 0-2.1-.3l.6-3.1zM92.6 636.7c0-4.3 1.7-6.8 5.4-6.8 3.6 0 5.5 2.7 5.5 6.8 0 4.2-1.8 7-5.5 7-3.8 0-5.4-2.6-5.4-7zm7-.1c0-2.3-.4-3-1.6-3-1.4 0-1.5.6-1.5 3 0 2.7.2 3.4 1.6 3.4 1.1 0 1.5-.7 1.5-3.4zM112.2 643.5l-.2-1.2c-1.2 1.3-2.6 1.5-3.8 1.5-2.5 0-3.3-1.7-3.3-5v-8.7h3.9v8.6c0 1.1.1 1.6.8 1.6.4 0 1-.1 1.5-.7v-9.5h3.9v13.4h-2.8zM116.9 643.5v-13.3l3-.3.3 1.5c.7-1.1 1.8-1.6 2.9-1.6.4 0 .7 0 1.1.1l-.4 3.8h-.9c-.7 0-1.5 0-2.1.4v9.5h-3.9zM130.1 648.4v-18.1l3.2-.3.1.8c.9-.5 1.9-.8 2.8-.8 3.1 0 4.7 2.3 4.7 6.5 0 4.4-1.7 7.4-4.7 7.4-.7 0-1.6-.2-2.3-.6v5.2h-3.8zm3.8-8.5c.5.2 1 .4 1.5.4.9 0 1.7-1 1.7-3.8 0-2-.4-3.2-1.7-3.2-.4 0-1 .2-1.4.5v6.1zM150 643.5l-.2-1.2c-1.2 1.3-2.6 1.5-3.8 1.5-2.5 0-3.3-1.7-3.3-5v-8.7h3.9v8.6c0 1.1.1 1.6.8 1.6.4 0 1-.1 1.5-.7v-9.5h3.9v13.4H150zM154.6 643.5v-13.3l3-.3.3 1.5c.7-1.1 1.8-1.6 2.9-1.6.4 0 .7 0 1.1.1l-.4 3.8h-.9c-.7 0-1.5 0-2.1.4v9.5h-3.9zM173 642.4c-1 .8-2.8 1.4-4.3 1.4-3.8 0-5.6-2.8-5.6-6.8 0-4.1 1.9-7 5.7-7 1.4 0 2.8.4 3.7 1.1l-1.1 3c-.7-.4-1.4-.6-2.2-.6-1.6 0-2.2 1.4-2.2 3.5 0 2 .5 3.4 2.4 3.4.8 0 1.9-.4 2.5-.8l1.1 2.8zM181.1 643.5v-8c0-1.7-.4-2.2-1.4-2.2-.4 0-.9.1-1.4.3v9.9h-4V625l3.8-.3v5.7c.9-.4 2.1-.6 3.1-.6 2.9 0 3.8 2 3.8 5.2v8.5h-3.9zM193.6 643.5l-.2-1c-.9.8-2 1.3-3.4 1.3-2.1 0-3.7-1.4-3.7-4.2 0-3.6 2.1-4.4 5-4.4h1.4v-.4c0-1.4-.9-1.8-2.4-1.8-.6 0-1.4 0-2.3.2l-.4-3c1-.2 2.4-.4 3.5-.4 4 0 5.3 2.1 5.3 5.5v8.2h-2.8zm-.9-5.5c-2.5 0-2.8.3-2.8 1.4 0 .8.5 1.1 1.2 1.1.6 0 1.2-.3 1.7-.7V638zM198.4 639.8c.9.4 2.2.8 3.2.8.6 0 1.2-.2 1.2-.8 0-.5-.2-.9-1.6-1.7-1.7-1-2.8-2.1-2.8-4.1 0-2.5 1.7-4.1 4.3-4.1 1.2 0 2.7.3 3.8 1.2l-1.3 2.7c-.5-.5-1.2-.7-2-.7-.4 0-.9.2-.9.8 0 .5.3 1 1.6 1.7 1.8 1 2.8 1.9 2.8 4 0 2.7-1.8 4.3-4.7 4.3-1.4 0-2.9-.3-4.5-1l.9-3.1zM218.1 642.4c-1.2.8-2.9 1.3-4.6 1.3-3.9 0-5.9-2.8-5.9-7 0-4.3 1.7-6.8 5.3-6.8 3.7 0 5.4 2.7 4.8 8h-6.4c.1 2 1.4 2.4 2.6 2.4 1 0 2.2-.3 3.1-.8l1.1 2.9zm-3.4-7.3c-.1-1.6-.7-2-1.7-2-1.1 0-1.6.4-1.7 2h3.4zM225.2 643.5v-10.1h-1.5v-3.3h1.5v-1c0-3.6 1.5-4.6 3.9-4.6.6 0 1.3 0 2.2.2l-.4 3h-.6c-1 0-1.1.4-1.1 1.3v1h1.8v3.3h-1.8v10.1h-4zM232.1 636.7c0-4.3 1.7-6.8 5.4-6.8 3.6 0 5.5 2.7 5.5 6.8 0 4.2-1.8 7-5.5 7-3.8 0-5.4-2.6-5.4-7zm7-.1c0-2.3-.4-3-1.6-3-1.4 0-1.5.6-1.5 3 0 2.7.2 3.4 1.6 3.4 1.1 0 1.5-.7 1.5-3.4zM244.5 643.5v-13.3l3-.3.3 1.5c.7-1.1 1.8-1.6 2.9-1.6.4 0 .7 0 1.1.1l-.4 3.8h-.9c-.7 0-1.5 0-2.1.4v9.5h-3.9zM258 645.2c.4.1.6.1.8.1.9 0 1.2-.3 1.5-1.5l.3-1-4.2-12.5h4.1l1.7 6.8 1.4-6.8h4l-3.8 12.7c-1.3 4.3-2 5.6-4.3 5.6-.5 0-1.2 0-2.1-.3l.6-3.1zM268.4 636.7c0-4.3 1.7-6.8 5.4-6.8 3.6 0 5.5 2.7 5.5 6.8 0 4.2-1.8 7-5.5 7s-5.4-2.6-5.4-7zm7-.1c0-2.3-.4-3-1.6-3-1.4 0-1.5.6-1.5 3 0 2.7.2 3.4 1.6 3.4 1.1 0 1.5-.7 1.5-3.4zM288.1 643.5l-.2-1.2c-1.2 1.3-2.6 1.5-3.8 1.5-2.5 0-3.3-1.7-3.3-5v-8.7h3.9v8.6c0 1.1.1 1.6.8 1.6.4 0 1-.1 1.5-.7v-9.5h3.9v13.4h-2.8zM292.7 643.5v-13.3l3-.3.3 1.5c.7-1.1 1.8-1.6 2.9-1.6.4 0 .7 0 1.1.1l-.4 3.8h-.9c-.7 0-1.5 0-2.1.4v9.5h-3.9zM315.5 642.4c-1 .8-2.8 1.4-4.3 1.4-3.8 0-5.6-2.8-5.6-6.8 0-4.1 1.9-7 5.7-7 1.4 0 2.8.4 3.7 1.1l-1.1 3c-.7-.4-1.4-.6-2.2-.6-1.6 0-2.2 1.4-2.2 3.5 0 2 .5 3.4 2.4 3.4.8 0 1.9-.4 2.5-.8l1.1 2.8zM323.7 643.5v-8c0-1.7-.4-2.2-1.4-2.2-.4 0-.9.1-1.4.3v9.9h-4V625l3.8-.3v5.7c.9-.4 2.1-.6 3.1-.6 2.9 0 3.8 2 3.8 5.2v8.5h-3.9zM336.2 643.5l-.2-1c-.9.8-2 1.3-3.4 1.3-2.1 0-3.7-1.4-3.7-4.2 0-3.6 2.1-4.4 5-4.4h1.4v-.4c0-1.4-.9-1.8-2.4-1.8-.6 0-1.4 0-2.3.2l-.4-3c1-.2 2.4-.4 3.5-.4 4 0 5.3 2.1 5.3 5.5v8.2h-2.8zm-.9-5.5c-2.5 0-2.8.3-2.8 1.4 0 .8.5 1.1 1.2 1.1.6 0 1.2-.3 1.7-.7V638zM347.5 643.5v-8.4c0-1.4-.3-1.7-1.2-1.7-.4 0-1 0-1.5.4v9.7h-3.9v-13.3l3.2-.3.2 1c1.1-.9 2.4-1.1 3.5-1.1 2.8 0 3.7 2 3.7 5.2v8.5h-4zM363 642.4c-1 .8-2.8 1.4-4.3 1.4-3.8 0-5.6-2.8-5.6-6.8 0-4.1 1.9-7 5.7-7 1.4 0 2.8.4 3.7 1.1l-1.1 3c-.7-.4-1.4-.6-2.2-.6-1.6 0-2.2 1.4-2.2 3.5 0 2 .5 3.4 2.4 3.4.8 0 1.9-.4 2.5-.8l1.1 2.8zM374.3 642.4c-1.2.8-2.9 1.3-4.6 1.3-3.9 0-5.9-2.8-5.9-7 0-4.3 1.7-6.8 5.3-6.8 3.7 0 5.4 2.7 4.8 8h-6.4c.1 2 1.4 2.4 2.6 2.4 1 0 2.2-.3 3.1-.8l1.1 2.9zm-3.5-7.3c-.1-1.6-.7-2-1.7-2-1.1 0-1.6.4-1.7 2h3.4zM387 643.5c-1 .3-1.8.3-2.4.3-2.1 0-3.3-1-3.3-4.7v-5.7h-1.5v-3.3h1.6v-2.8l3.7-.2v3.1h1.9v3.3h-1.9v5.5c0 .9.3 1.3.9 1.3.3 0 .5 0 1.1-.1l-.1 3.3zM388.3 636.7c0-4.3 1.7-6.8 5.4-6.8 3.6 0 5.5 2.7 5.5 6.8 0 4.2-1.8 7-5.5 7s-5.4-2.6-5.4-7zm7-.1c0-2.3-.4-3-1.6-3-1.4 0-1.5.6-1.5 3 0 2.7.2 3.4 1.6 3.4 1.1 0 1.5-.7 1.5-3.4z"/><path fill="#FFF200" d="M417.1 643.5l-1.9-9.5-2.5 9.5H408l-3.4-18.3h4.4l1.6 12.7 3.1-12.7h3.2l2.4 12.8 2.3-12.8h4.2l-4.1 18.3h-4.6zM427.6 643.5v-18.3h4v18.3h-4zM443.4 643.5L438 633v10.5h-3.9v-18.3h3.9l5.4 10.6v-10.6h3.9v18.3h-3.9zM453.5 636.7c0-4.3 1.7-6.8 5.4-6.8 3.6 0 5.5 2.7 5.5 6.8 0 4.2-1.8 7-5.5 7s-5.4-2.6-5.4-7zm7.1-.1c0-2.3-.4-3-1.6-3-1.4 0-1.5.6-1.5 3 0 2.7.2 3.4 1.6 3.4 1 0 1.5-.7 1.5-3.4zM468.5 643.5l-3.5-13.4h4.1l1.4 8 1.4-8h4.1l-3.5 13.4h-4zM487 642.4c-1.2.8-2.9 1.3-4.6 1.3-3.9 0-5.9-2.8-5.9-7 0-4.3 1.7-6.8 5.3-6.8 3.7 0 5.4 2.7 4.8 8h-6.4c.1 2 1.4 2.4 2.6 2.4 1 0 2.2-.3 3.1-.8l1.1 2.9zm-3.5-7.3c-.1-1.6-.7-2-1.7-2-1.1 0-1.6.4-1.7 2h3.4zM488.6 643.5v-13.3l3-.3.3 1.5c.7-1.1 1.8-1.6 2.9-1.6.4 0 .7 0 1.1.1l-.4 3.8h-.9c-.7 0-1.5 0-2.1.4v9.5h-3.9zM501.5 643.5V640c1.9-.9 2.2-2.1 2.2-3.6v-.3h-2.1v-3.2h1.9c-.2-1.2-.3-2.4-.3-3.2 0-3.6 2.5-4.7 5-4.7 1.3 0 3.2.3 4.3.7l-.8 3.4c-.7-.2-1.6-.4-2.6-.4-1.4 0-1.9.4-1.9 1.6 0 .4.1 1.5.2 2.6h4l-.3 3.2h-3.5c0 1.9-.4 3-1.3 3.9h6.7v3.5h-11.5zM518.2 643.5v-12.8c-.7.6-1.5 1.2-2.3 1.7l-2-3.1c2.3-1.4 3.8-2.8 5.3-4.1h3.1v18.3h-4.1zM525.4 634.3c0-5.9 1.8-9.4 6.2-9.4 4.5 0 6.3 3 6.3 9.4 0 6.5-1.9 9.6-6.3 9.6-4.6-.1-6.2-3.2-6.2-9.6zm8.2-.2c0-4.1-.6-5.2-2-5.2-1.6 0-2 1.1-2 5.2 0 4.6.3 5.8 2 5.8 1.4 0 2-1.2 2-5.8zM539.5 634.3c0-5.9 1.8-9.4 6.2-9.4 4.5 0 6.3 3 6.3 9.4 0 6.5-1.9 9.6-6.3 9.6-4.6-.1-6.2-3.2-6.2-9.6zm8.3-.2c0-4.1-.6-5.2-2-5.2-1.6 0-2 1.1-2 5.2 0 4.6.3 5.8 2 5.8 1.4 0 2-1.2 2-5.8zM553.7 634.3c0-5.9 1.8-9.4 6.2-9.4 4.5 0 6.3 3 6.3 9.4 0 6.5-1.9 9.6-6.3 9.6-4.7-.1-6.2-3.2-6.2-9.6zm8.2-.2c0-4.1-.6-5.2-2-5.2-1.6 0-2 1.1-2 5.2 0 4.6.3 5.8 2 5.8 1.4 0 2-1.2 2-5.8zM581.3 643.5l-2-7-1.9 7H574l-2.4-13.4h3.8l1 7.2 1.8-7.2h2.4l1.8 7.2 1-7.2h3.8l-2.4 13.4h-3.5zM588 636.7c0-4.3 1.7-6.8 5.4-6.8 3.6 0 5.5 2.7 5.5 6.8 0 4.2-1.8 7-5.5 7s-5.4-2.6-5.4-7zm7-.1c0-2.3-.4-3-1.6-3-1.4 0-1.5.6-1.5 3 0 2.7.2 3.4 1.6 3.4 1.1 0 1.5-.7 1.5-3.4zM600.4 643.5v-13.3l3-.3.3 1.5c.7-1.1 1.8-1.6 2.9-1.6.4 0 .7 0 1.1.1l-.4 3.8h-.9c-.7 0-1.5 0-2.1.4v9.5h-3.9zM615.6 643.5c-1 .3-1.8.3-2.4.3-2.1 0-3.3-1-3.3-4.7v-5.7h-1.5v-3.3h1.6v-2.8l3.7-.2v3.1h1.9v3.3h-1.9v5.5c0 .9.3 1.3.9 1.3.3 0 .5 0 1.1-.1l-.1 3.3zM624.2 643.5v-8c0-1.7-.4-2.2-1.4-2.2-.4 0-.9.1-1.4.3v9.9h-4V625l3.8-.3v5.7c.9-.4 2.1-.6 3.1-.6 2.9 0 3.8 2 3.8 5.2v8.5h-3.9zM633.9 636.7c0-4.3 1.7-6.8 5.4-6.8 3.6 0 5.5 2.7 5.5 6.8 0 4.2-1.8 7-5.5 7s-5.4-2.6-5.4-7zm7.1-.1c0-2.3-.4-3-1.6-3-1.4 0-1.5.6-1.5 3 0 2.7.2 3.4 1.6 3.4 1 0 1.5-.7 1.5-3.4zM647.3 643.5v-10.1h-1.5v-3.3h1.5v-1c0-3.6 1.5-4.6 3.9-4.6.6 0 1.3 0 2.2.2l-.4 3h-.6c-1 0-1.1.4-1.1 1.3v1h1.8v3.3h-1.8v10.1h-4zM662 643.5v-14.6h-3.7v-3.7h11.5v3.7H666v14.6h-4zM670.4 636.7c0-4.3 1.7-6.8 5.4-6.8 3.6 0 5.5 2.7 5.5 6.8 0 4.2-1.8 7-5.5 7s-5.4-2.6-5.4-7zm7.1-.1c0-2.3-.4-3-1.6-3-1.4 0-1.5.6-1.5 3 0 2.7.2 3.4 1.6 3.4 1 0 1.5-.7 1.5-3.4zM682.4 636.7c0-4.3 1.7-6.8 5.4-6.8 3.6 0 5.5 2.7 5.5 6.8 0 4.2-1.8 7-5.5 7-3.8 0-5.4-2.6-5.4-7zm7-.1c0-2.3-.4-3-1.6-3-1.4 0-1.5.6-1.5 3 0 2.7.2 3.4 1.6 3.4 1.1 0 1.5-.7 1.5-3.4zM694.8 643.5V625l3.9-.3v18.8h-3.9zM700.8 639.8c.9.4 2.2.8 3.2.8.6 0 1.2-.2 1.2-.8 0-.5-.3-.9-1.6-1.7-1.7-1-2.8-2.1-2.8-4.1 0-2.5 1.7-4.1 4.3-4.1 1.2 0 2.7.3 3.8 1.2l-1.3 2.7c-.5-.5-1.2-.7-2-.7-.4 0-.9.2-.9.8 0 .5.3 1 1.6 1.7 1.8 1 2.8 1.9 2.8 4 0 2.7-1.8 4.3-4.7 4.3-1.4 0-2.9-.3-4.5-1l.9-3.1zM721.8 643.5l-.2-1c-.9.8-2 1.3-3.4 1.3-2.1 0-3.7-1.4-3.7-4.2 0-3.6 2.1-4.4 5-4.4h1.4v-.4c0-1.4-.9-1.8-2.4-1.8-.6 0-1.4 0-2.3.2l-.4-3c1-.2 2.4-.4 3.5-.4 4 0 5.3 2.1 5.3 5.5v8.2h-2.8zm-.9-5.5c-2.5 0-2.8.3-2.8 1.4 0 .8.5 1.1 1.2 1.1.6 0 1.2-.3 1.7-.7V638zM733.1 643.5v-8.4c0-1.4-.3-1.7-1.2-1.7-.4 0-1 0-1.5.4v9.7h-3.9v-13.3l3.2-.3.2 1c1.1-.9 2.4-1.1 3.5-1.1 2.8 0 3.7 2 3.7 5.2v8.5h-4zM746.5 643.5l-.1-.9c-1 .8-2.2 1.2-3.2 1.2-3 0-4.7-2.3-4.7-6.8 0-3.5 1-7.1 4.9-7.1.7 0 1.5.2 2.3.5v-5.3l3.7-.3v18.8h-2.9zm-.9-9.9c-.4-.2-1-.3-1.4-.3-1.6 0-1.8 2-1.8 3.7 0 2.7.7 3.4 1.8 3.4.4 0 1-.2 1.4-.5v-6.3zM764.3 636.2h-1.9v-3.1h5.7v9.2c-1 .7-2.9 1.4-5.3 1.4-5.2 0-7.3-3.4-7.3-9.1 0-5.6 2.3-9.7 7.4-9.7 1.8 0 3.4.5 4.7 1.5l-1.6 3.2c-.9-.6-1.8-.9-2.7-.9-2.6 0-3.6 2.2-3.6 6 0 3.1.5 5.1 3.4 5.1.4 0 .8 0 1.2-.1v-3.5zM776.8 643.5l-.2-1c-.9.8-2 1.3-3.4 1.3-2.1 0-3.7-1.4-3.7-4.2 0-3.6 2.1-4.4 5-4.4h1.4v-.4c0-1.4-.9-1.8-2.4-1.8-.6 0-1.4 0-2.3.2l-.4-3c1-.2 2.4-.4 3.5-.4 4 0 5.3 2.1 5.3 5.5v8.2h-2.8zm-.9-5.5c-2.5 0-2.8.3-2.8 1.4 0 .8.5 1.1 1.2 1.1.6 0 1.2-.3 1.7-.7V638zM789.2 643.5l-.1-.9c-1 .8-2.2 1.2-3.2 1.2-3 0-4.7-2.3-4.7-6.8 0-3.5 1-7.1 4.9-7.1.7 0 1.5.2 2.3.5v-5.3l3.7-.3v18.8h-2.9zm-.9-9.9c-.4-.2-1-.3-1.4-.3-1.6 0-1.8 2-1.8 3.7 0 2.7.7 3.4 1.8 3.4.4 0 1-.2 1.4-.5v-6.3zM795.3 644.8c1.2.3 2.2.4 3.2.4 2 0 2.4-.7 2.5-2.6-.8.4-1.6.6-2.3.6-3 0-4.7-2.2-4.7-6.5 0-3.4.9-6.9 4.9-6.9.9 0 1.9.3 2.7.7l.1-.7 2.9.3v12.2c0 4.8-2.2 6.1-5.8 6.1-1.1 0-2.6-.1-4.2-.6l.7-3zm5.6-11.3c-.4-.2-1-.3-1.4-.3-1.4 0-1.6 1.9-1.6 3.4 0 2.5.6 3.2 1.4 3.2.5 0 1-.2 1.6-.4v-5.9zM816.8 642.4c-1.2.8-2.9 1.3-4.6 1.3-3.9 0-5.9-2.8-5.9-7 0-4.3 1.7-6.8 5.3-6.8 3.7 0 5.4 2.7 4.8 8H810c.1 2 1.4 2.4 2.6 2.4 1 0 2.2-.3 3.1-.8l1.1 2.9zm-3.5-7.3c-.1-1.6-.7-2-1.7-2-1.1 0-1.6.4-1.7 2h3.4zM825 643.5c-1 .3-1.8.3-2.4.3-2.1 0-3.3-1-3.3-4.7v-5.7h-1.5v-3.3h1.6v-2.8l3.7-.2v3.1h1.9v3.3h-1.9v5.5c0 .9.3 1.3.9 1.3.3 0 .5 0 1.1-.1l-.1 3.3zM826.9 639.8c.9.4 2.2.8 3.2.8.6 0 1.2-.2 1.2-.8 0-.5-.3-.9-1.6-1.7-1.7-1-2.8-2.1-2.8-4.1 0-2.5 1.7-4.1 4.3-4.1 1.2 0 2.7.3 3.8 1.2l-1.3 2.7c-.5-.5-1.2-.7-2-.7-.4 0-.9.2-.9.8 0 .5.3 1 1.6 1.7 1.8 1 2.8 1.9 2.8 4 0 2.7-1.8 4.3-4.7 4.3-1.4 0-2.9-.3-4.5-1l.9-3.1zM573.6 569.3L555 582.8l7.2 22-18.6-13.6-18.7 13.6 7.2-22-18.6-13.5h22.9l7.2-21.9 7.1 21.9h22.9zm65.4 0l-18.6 13.5 7.2 22-18.6-13.6-18.7 13.6 7.2-22-18.6-13.5h22.9l7.2-21.9 7.1 21.9H639zm65.4 0l-18.6 13.5 7.2 22-18.6-13.6-18.7 13.6 7.2-22-18.6-13.5h22.9l7.2-21.9 7.1 21.9h22.9zm65.3 0l-18.6 13.5 7.2 22-18.6-13.6-18.7 13.6 7.2-22-18.6-13.5h22.9l7.2-21.9 7.1 21.9h22.9zm65.4 0l-18.6 13.5 7.2 22-18.7-13.6-18.7 13.6 7.2-22-18.6-13.5h22.9l7.2-21.9 7.1 21.9h23z"/></svg>