<svg xmlns="http://www.w3.org/2000/svg" viewBox="0 0 279.8 82.8"><g fill="#FFF"><path d="M16.6 38.7l-4-11.7H11v11.7H2.2V2h9c10.2 0 13.5 4.9 13.5 12.3 0 4.6-1.4 8.1-4.1 9.9L26 38.7h-9.4zm-5.1-19.4c3 0 4.6-.8 4.6-5 0-2.7-1.1-4.3-3.9-4.3H11v9.3h.5zM28 38.7V2h18.9v8.3h-9.6v5.1H45l-.5 8.3h-7.2v6.7h9.6v8.3H28zM55.6 38.7L47.5 2h9.6l3.6 22.6L64.4 2h9.2l-8.5 36.7h-9.5zM75.5 38.7V2H85v36.7h-9.5zM89 38.7V2h18.9v8.3h-9.6v5.1h7.7l-.5 8.3h-7.2v6.7h9.6v8.3H89zM132.1 38.7l-2.1-14-3.1 14h-10.6L109.1 2h10.2l3 23.2 4.6-23.4h7.4l3.3 23.7L142 2h9.6l-8.8 36.7h-10.7zM178.4 38.7l-1.6-2.3c-2.8 2-5.6 2.8-9.2 2.8-7.3 0-10.4-4.5-10.4-10.2 0-5.6 3.4-8.5 7-10.9l-.6-.8c-1.9-2.7-2.5-5.1-2.5-7.3 0-5.1 4-8.6 10.2-8.6 6.1 0 10.4 2.9 10.4 8.4 0 4.3-2.4 6.9-6.2 9.9l2.9 4.2 4.8-4.9 5.2 5.8-5.5 5.7 5.7 8.1h-10.2zm-9.8-14.1c-1.7 1.2-2.4 2.2-2.4 3.7 0 1.8.9 2.9 2.7 2.9 1 0 2.1-.4 3.3-1.3l-3.6-5.3zm3-10.4c1.4-1 2.3-2 2.3-3.7 0-1.3-.8-2.1-2.2-2.1-1.2 0-2 .5-2 2 0 .8.5 1.8 1.6 3.3l.3.5zM216.1 38.7l-2.1-14-3.1 14h-10.6L193.1 2h10.2l3 23.2 4.6-23.4h7.4l3.3 23.7L226 2h9.6l-8.8 36.7h-10.7zM238.4 38.7V2h9.4v36.7h-9.4zM269.7 38.7l-8.5-17.2v17.2H252V2h8.9l8.5 17.5V2h9.3v36.7h-9z"/></g><g fill="#FFF"><path d="M19.2 58.9l-1.4-4h-.9v4h-2.6V47.1h2.9c3.3 0 4.4 1.5 4.4 3.8 0 1.5-.5 2.6-1.5 3.2l1.9 4.8h-2.8zm-1.9-6.1c1.2 0 1.7-.4 1.7-1.9 0-1-.5-1.6-1.6-1.6h-.6v3.5h.5zM29.2 58.2c-.8.5-1.8.9-3 .9-2.5 0-3.8-1.8-3.8-4.5 0-2.8 1.1-4.4 3.4-4.4 2.4 0 3.5 1.7 3.1 5.2h-4.2c.1 1.3.9 1.6 1.7 1.6.6 0 1.4-.2 2-.5l.8 1.7zM27 53.4c0-1-.5-1.3-1.1-1.3-.7 0-1 .3-1.1 1.3H27zM31.9 58.9l-2.3-8.6h2.6l.9 5.2.9-5.2h2.6l-2.2 8.6h-2.5zM38.6 49.1c-.8 0-1.4-.3-1.4-1.3s.6-1.3 1.4-1.3 1.4.3 1.4 1.3-.6 1.3-1.4 1.3zm-1.2 9.8v-8.6h2.4v8.6h-2.4zM47.6 58.2c-.8.5-1.8.9-3 .9-2.5 0-3.8-1.8-3.8-4.5 0-2.8 1.1-4.4 3.4-4.4 2.4 0 3.5 1.7 3.1 5.2h-4.2c.1 1.3.9 1.6 1.7 1.6.6 0 1.4-.2 2-.5l.8 1.7zm-2.2-4.8c0-1-.5-1.3-1.1-1.3-.7 0-1 .3-1.1 1.3h2.2zM54.4 58.9l-1.3-4.5-1.2 4.5h-2.2l-1.6-8.6h2.4l.6 4.6 1.2-4.6h1.5L55 55l.7-4.7h2.4l-1.5 8.6h-2.2zM62.2 60h.5c.6 0 .8-.2 1-1l.2-.7-2.7-8.1h2.7l1.1 4.4.9-4.4h2.6L66 58.5c-.8 2.8-1.3 3.6-2.8 3.6-.3 0-.8 0-1.3-.2l.3-1.9zM68.9 54.5c0-2.8 1.1-4.4 3.5-4.4 2.3 0 3.5 1.8 3.5 4.4 0 2.7-1.2 4.5-3.5 4.5-2.5 0-3.5-1.7-3.5-4.5zm4.5-.1c0-1.5-.3-1.9-1-1.9-.9 0-1 .4-1 1.9 0 1.7.1 2.2 1 2.2.7 0 1-.4 1-2.2zM81.5 58.9l-.1-.8c-.8.8-1.7 1-2.5 1-1.6 0-2.2-1.1-2.2-3.2v-5.6h2.5v5.5c0 .7.1 1 .5 1 .3 0 .7-.1 1-.5v-6.1h2.5v8.6h-1.7zM84.5 58.9v-8.6l1.9-.2.2 1c.5-.7 1.2-1 1.9-1 .2 0 .5 0 .7.1l-.2 2.4h-.6c-.5 0-1 0-1.4.3V59h-2.5zM93 62V50.3l2.1-.2.1.5c.6-.3 1.2-.5 1.8-.5 2 0 3 1.5 3 4.2 0 2.9-1.1 4.7-3 4.7-.5 0-1-.1-1.5-.4V62H93zm2.5-5.5c.3.2.6.3.9.3.6 0 1.1-.7 1.1-2.4 0-1.3-.3-2.1-1.1-2.1-.3 0-.6.1-.9.3v3.9zM105.9 58.9l-.1-.8c-.8.8-1.7 1-2.5 1-1.6 0-2.2-1.1-2.2-3.2v-5.6h2.5v5.5c0 .7.1 1 .5 1 .3 0 .7-.1 1-.5v-6.1h2.5v8.6h-1.7zM108.9 58.9v-8.6l1.9-.2.2 1c.5-.7 1.2-1 1.9-1 .2 0 .5 0 .7.1l-.3 2.5h-.6c-.5 0-1 0-1.4.3v6.1h-2.4zM120.7 58.1c-.6.5-1.8.9-2.8.9-2.5 0-3.6-1.8-3.6-4.4 0-2.6 1.2-4.5 3.7-4.5.9 0 1.8.3 2.4.7l-.7 1.9c-.5-.3-.9-.4-1.4-.4-1 0-1.4.9-1.4 2.2 0 1.3.3 2.2 1.6 2.2.5 0 1.2-.3 1.6-.5l.6 1.9zM125.9 58.9v-5.1c0-1.1-.2-1.4-.9-1.4-.3 0-.6 0-.9.2V59h-2.6V47l2.5-.2v3.7c.6-.2 1.4-.4 2-.4 1.9 0 2.5 1.3 2.5 3.4V59h-2.6zM134 58.9l-.1-.7c-.6.5-1.3.8-2.2.8-1.4 0-2.4-.9-2.4-2.7 0-2.3 1.3-2.9 3.2-2.9h.9v-.2c0-.9-.6-1.2-1.6-1.2-.4 0-.9 0-1.5.1l-.3-1.9c.7-.2 1.6-.3 2.3-.3 2.6 0 3.4 1.4 3.4 3.6v5.3H134zm-.6-3.6c-1.6 0-1.8.2-1.8.9 0 .5.3.7.8.7.4 0 .8-.2 1.1-.5v-1.1zM137.1 56.5c.6.3 1.4.5 2 .5.4 0 .8-.1.8-.5s-.2-.6-1-1.1c-1.1-.6-1.8-1.4-1.8-2.6 0-1.6 1.1-2.7 2.8-2.7.8 0 1.7.2 2.4.8l-.9 1.8c-.3-.3-.8-.5-1.3-.5-.3 0-.6.1-.6.5s.2.6 1 1.1c1.1.7 1.8 1.2 1.8 2.6 0 1.8-1.2 2.8-3 2.8-.9 0-1.9-.2-2.9-.6l.7-2.1zM149.8 58.2c-.8.5-1.8.9-3 .9-2.5 0-3.8-1.8-3.8-4.5 0-2.8 1.1-4.4 3.4-4.4 2.4 0 3.5 1.7 3.1 5.2h-4.2c.1 1.3.9 1.6 1.7 1.6.6 0 1.4-.2 2-.5l.8 1.7zm-2.2-4.8c0-1-.5-1.3-1.1-1.3-.7 0-1 .3-1.1 1.3h2.2zM154.4 58.9v-6.5h-.9v-2.1h.9v-.6c0-2.3 1-3 2.5-3 .4 0 .8 0 1.4.1l-.3 2h-.4c-.7 0-.7.3-.7.9v.7h1.2v2.1h-1.2V59h-2.5zM158.8 54.5c0-2.8 1.1-4.4 3.5-4.4 2.3 0 3.5 1.8 3.5 4.4 0 2.7-1.2 4.5-3.5 4.5-2.4 0-3.5-1.7-3.5-4.5zm4.5-.1c0-1.5-.3-1.9-1-1.9-.9 0-1 .4-1 1.9 0 1.7.1 2.2 1 2.2.7 0 1-.4 1-2.2zM166.8 58.9v-8.6l1.9-.2.2 1c.5-.7 1.2-1 1.9-1 .2 0 .5 0 .7.1l-.3 2.5h-.6c-.5 0-1 0-1.4.3v6.1h-2.4zM175.5 60h.5c.6 0 .8-.2 1-1l.2-.7-2.7-8.1h2.7l1.1 4.4.9-4.4h2.6l-2.5 8.2c-.8 2.8-1.3 3.6-2.8 3.6-.3 0-.8 0-1.3-.2l.3-1.8zM182.2 54.5c0-2.8 1.1-4.4 3.5-4.4 2.3 0 3.5 1.8 3.5 4.4 0 2.7-1.2 4.5-3.5 4.5-2.4 0-3.5-1.7-3.5-4.5zm4.5-.1c0-1.5-.3-1.9-1-1.9-.9 0-1 .4-1 1.9 0 1.7.1 2.2 1 2.2.7 0 1-.4 1-2.2zM194.9 58.9l-.1-.8c-.8.8-1.7 1-2.5 1-1.6 0-2.2-1.1-2.2-3.2v-5.6h2.5v5.5c0 .7.1 1 .5 1 .3 0 .7-.1 1-.5v-6.1h2.5v8.6h-1.7zM197.8 58.9v-8.6l1.9-.2.2 1c.5-.7 1.2-1 1.9-1 .2 0 .5 0 .7.1l-.3 2.5h-.6c-.5 0-1 0-1.4.3v6.1h-2.4zM212.5 58.1c-.6.5-1.8.9-2.8.9-2.5 0-3.6-1.8-3.6-4.4 0-2.6 1.2-4.5 3.7-4.5.9 0 1.8.3 2.4.7l-.7 1.9c-.5-.3-.9-.4-1.4-.4-1 0-1.4.9-1.4 2.2 0 1.3.3 2.2 1.6 2.2.5 0 1.2-.3 1.6-.5l.6 1.9zM217.8 58.9v-5.1c0-1.1-.2-1.4-.9-1.4-.3 0-.6 0-.9.2V59h-2.6V47l2.5-.2v3.7c.6-.2 1.4-.4 2-.4 1.9 0 2.5 1.3 2.5 3.4V59h-2.6zM225.8 58.9l-.1-.7c-.6.5-1.3.8-2.2.8-1.4 0-2.4-.9-2.4-2.7 0-2.3 1.3-2.9 3.2-2.9h.9v-.2c0-.9-.6-1.2-1.6-1.2-.4 0-.9 0-1.5.1l-.3-1.9c.7-.2 1.6-.3 2.3-.3 2.6 0 3.4 1.4 3.4 3.6v5.3h-1.7zm-.5-3.6c-1.6 0-1.8.2-1.8.9 0 .5.3.7.8.7.4 0 .8-.2 1.1-.5v-1.1zM233.2 58.9v-5.4c0-.9-.2-1.1-.8-1.1-.3 0-.6 0-1 .3V59h-2.5v-8.6l2-.2.1.7c.7-.6 1.5-.7 2.3-.7 1.8 0 2.4 1.3 2.4 3.4v5.5h-2.5zM243.1 58.1c-.6.5-1.8.9-2.8.9-2.5 0-3.6-1.8-3.6-4.4 0-2.6 1.2-4.5 3.7-4.5.9 0 1.8.3 2.4.7l-.7 1.9c-.5-.3-.9-.4-1.4-.4-1 0-1.4.9-1.4 2.2 0 1.3.3 2.2 1.6 2.2.5 0 1.2-.3 1.6-.5l.6 1.9zM250.4 58.2c-.8.5-1.8.9-3 .9-2.5 0-3.8-1.8-3.8-4.5 0-2.8 1.1-4.4 3.4-4.4 2.4 0 3.5 1.7 3.1 5.2h-4.2c.1 1.3.9 1.6 1.7 1.6.6 0 1.4-.2 2-.5l.8 1.7zm-2.2-4.8c0-1-.5-1.3-1.1-1.3-.7 0-1 .3-1.1 1.3h2.2zM258.6 58.9c-.6.2-1.1.2-1.6.2-1.4 0-2.1-.6-2.1-3v-3.7h-1v-2.1h1v-1.8l2.4-.2v2h1.2v2.1h-1.2V56c0 .6.2.8.6.8h.7v2.1zM259.4 54.5c0-2.8 1.1-4.4 3.5-4.4 2.3 0 3.5 1.8 3.5 4.4 0 2.7-1.2 4.5-3.5 4.5-2.4 0-3.5-1.7-3.5-4.5zm4.6-.1c0-1.5-.3-1.9-1-1.9-.9 0-1 .4-1 1.9 0 1.7.1 2.2 1 2.2.7 0 1-.4 1-2.2z"/></g><g fill="#FCEE23"><path d="M10 78.3l-1.3-6.1-1.6 6.1h-3L2 66.5h2.9l1 8.2 2-8.2H10l1.6 8.2 1.5-8.2h2.7L13 78.3h-3zM16.7 78.3V66.5h2.6v11.8h-2.6zM26.9 78.3l-3.5-6.7v6.7h-2.5V66.5h2.5l3.5 6.8v-6.8h2.5v11.8h-2.5zM33.4 73.9c0-2.7 1.1-4.4 3.5-4.4 2.3 0 3.5 1.8 3.5 4.4 0 2.7-1.2 4.5-3.5 4.5-2.4 0-3.5-1.7-3.5-4.5zm4.6-.1c0-1.5-.3-1.9-1-1.9-.9 0-1 .4-1 1.9 0 1.7.1 2.2 1 2.2.7 0 1-.5 1-2.2zM43.1 78.3l-2.2-8.6h2.6l.9 5.2.9-5.2h2.6l-2.2 8.6h-2.6zM54.9 77.5c-.8.5-1.8.9-3 .9-2.5 0-3.8-1.8-3.8-4.5s1.1-4.4 3.4-4.4c2.4 0 3.5 1.7 3.1 5.2h-4.1c.1 1.3.9 1.6 1.7 1.6.6 0 1.4-.2 2-.5l.7 1.7zm-2.2-4.7c0-1-.5-1.3-1.1-1.3-.7 0-1 .3-1.1 1.3h2.2zM56 78.3v-8.6l1.9-.2.2 1c.5-.7 1.2-1 1.9-1 .2 0 .5 0 .7.1l-.3 2.5h-.6c-.5 0-1 0-1.4.3v6.1H56zM64.3 78.3V76c1.2-.6 1.4-1.4 1.4-2.3v-.2h-1.4v-2.1h1.2c-.1-.8-.2-1.5-.2-2.1 0-2.3 1.6-3 3.2-3 .9 0 2.1.2 2.8.5l-.5 2.2c-.4-.1-1-.3-1.7-.3-.9 0-1.2.3-1.2 1 0 .3 0 .9.1 1.7h2.6l-.2 2.1h-2.2c0 1.2-.2 1.9-.9 2.5h4.3v2.3h-7.3zM75 78.3V70c-.5.4-1 .8-1.5 1.1l-1.3-2c1.5-.9 2.5-1.8 3.4-2.7h2v11.8H75zM79.7 72.3c0-3.8 1.2-6 4-6 2.9 0 4 1.9 4 6 0 4.2-1.3 6.1-4 6.1-3.1.1-4-2-4-6.1zm5.3-.1c0-2.6-.4-3.3-1.3-3.3-1 0-1.3.7-1.3 3.3 0 3 .2 3.7 1.3 3.7.9 0 1.3-.8 1.3-3.7zM88.7 72.3c0-3.8 1.2-6 4-6 2.9 0 4 1.9 4 6 0 4.2-1.3 6.1-4 6.1-3 .1-4-2-4-6.1zm5.3-.1c0-2.6-.4-3.3-1.3-3.3-1 0-1.3.7-1.3 3.3 0 3 .2 3.7 1.3 3.7.9 0 1.3-.8 1.3-3.7zM97.8 72.3c0-3.8 1.2-6 4-6 2.9 0 4 1.9 4 6 0 4.2-1.3 6.1-4 6.1-3 .1-4-2-4-6.1zm5.3-.1c0-2.6-.4-3.3-1.3-3.3-1 0-1.3.7-1.3 3.3 0 3 .2 3.7 1.3 3.7.9 0 1.3-.8 1.3-3.7zM115.6 78.3l-1.3-4.5-1.2 4.5H111l-1.6-8.6h2.4l.6 4.6 1.2-4.6h1.5l1.2 4.7.7-4.7h2.4l-1.5 8.6h-2.3zM119.9 73.9c0-2.7 1.1-4.4 3.5-4.4 2.3 0 3.5 1.8 3.5 4.4 0 2.7-1.2 4.5-3.5 4.5-2.4 0-3.5-1.7-3.5-4.5zm4.5-.1c0-1.5-.3-1.9-1-1.9-.9 0-1 .4-1 1.9 0 1.7.1 2.2 1 2.2.7 0 1-.5 1-2.2zM127.9 78.3v-8.6l1.9-.2.2 1c.5-.7 1.2-1 1.9-1 .2 0 .5 0 .7.1l-.3 2.5h-.6c-.5 0-1 0-1.4.3v6.1h-2.4zM137.7 78.2c-.6.2-1.1.2-1.6.2-1.4 0-2.1-.6-2.1-3v-3.7h-1v-2.1h1v-1.8l2.4-.2v2h1.2v2.1h-1.2v3.6c0 .6.2.8.6.8h.7v2.1zM143.2 78.3v-5.1c0-1.1-.2-1.4-.9-1.4-.3 0-.6 0-.9.2v6.3h-2.6V66.4l2.5-.2v3.7c.6-.2 1.4-.4 2-.4 1.9 0 2.5 1.3 2.5 3.4v5.4h-2.6zM149.4 73.9c0-2.7 1.1-4.4 3.5-4.4 2.3 0 3.5 1.8 3.5 4.4 0 2.7-1.2 4.5-3.5 4.5-2.4 0-3.5-1.7-3.5-4.5zm4.6-.1c0-1.5-.3-1.9-1-1.9-.9 0-1 .4-1 1.9 0 1.7.1 2.2 1 2.2.7 0 1-.5 1-2.2zM158.1 78.3v-6.5h-.9v-2.1h.9V69c0-2.3 1-3 2.5-3 .4 0 .8 0 1.4.1l-.3 2h-.4c-.7 0-.7.3-.7.9v.7h1.2v2.1h-1.2v6.5h-2.5zM167.5 78.3v-9.4h-2.4v-2.4h7.4v2.4h-2.4v9.4h-2.6zM172.9 73.9c0-2.7 1.1-4.4 3.5-4.4 2.3 0 3.5 1.8 3.5 4.4 0 2.7-1.2 4.5-3.5 4.5-2.4 0-3.5-1.7-3.5-4.5zm4.5-.1c0-1.5-.3-1.9-1-1.9-.9 0-1 .4-1 1.9 0 1.7.1 2.2 1 2.2.7 0 1-.5 1-2.2zM180.6 73.9c0-2.7 1.1-4.4 3.5-4.4 2.3 0 3.5 1.8 3.5 4.4 0 2.7-1.2 4.5-3.5 4.5-2.4 0-3.5-1.7-3.5-4.5zm4.5-.1c0-1.5-.3-1.9-1-1.9-.9 0-1 .4-1 1.9 0 1.7.1 2.2 1 2.2.7 0 1-.5 1-2.2zM188.6 78.3V66.4l2.5-.2v12.1h-2.5zM192.4 75.9c.6.3 1.4.5 2 .5.4 0 .8-.1.8-.5s-.2-.6-1-1.1c-1.1-.6-1.8-1.4-1.8-2.6 0-1.6 1.1-2.6 2.8-2.6.8 0 1.7.2 2.4.8l-.9 1.8c-.3-.3-.8-.5-1.3-.5-.3 0-.6.1-.6.5s.2.6 1 1.1c1.1.7 1.8 1.2 1.8 2.6 0 1.8-1.2 2.8-3 2.8-.9 0-1.9-.2-2.9-.6l.7-2.2zM205.9 78.3l-.1-.7c-.6.5-1.3.8-2.2.8-1.4 0-2.4-.9-2.4-2.7 0-2.3 1.3-2.9 3.2-2.9h.9v-.2c0-.9-.6-1.2-1.6-1.2-.4 0-.9 0-1.5.1l-.3-1.9c.7-.2 1.6-.3 2.3-.3 2.6 0 3.4 1.4 3.4 3.5v5.3h-1.7zm-.5-3.6c-1.6 0-1.8.2-1.8.9 0 .5.3.7.8.7.4 0 .8-.2 1.1-.4v-1.2zM213.2 78.3v-5.4c0-.9-.2-1.1-.8-1.1-.3 0-.6 0-1 .3v6.3h-2.5v-8.6l2-.2.1.7c.7-.6 1.5-.7 2.3-.7 1.8 0 2.4 1.3 2.4 3.4v5.4h-2.5zM221.8 78.3l-.1-.6c-.6.5-1.4.8-2.1.8-1.9 0-3-1.5-3-4.4 0-2.3.6-4.6 3.2-4.6.5 0 1 .1 1.5.3v-3.4l2.4-.2v12.1h-1.9zm-.6-6.5c-.3-.1-.6-.2-.9-.2-1.1 0-1.2 1.3-1.2 2.4 0 1.7.5 2.2 1.1 2.2.3 0 .6-.1.9-.3v-4.1zM233.3 73.5H232v-2h3.6v5.9c-.6.4-1.9.9-3.4.9-3.3 0-4.7-2.2-4.7-5.8 0-3.6 1.5-6.3 4.7-6.3 1.2 0 2.2.4 3 1l-1 2.1c-.6-.4-1.1-.6-1.7-.6-1.7 0-2.3 1.4-2.3 3.9 0 2 .4 3.3 2.2 3.3h.8v-2.4zM241.3 78.3l-.1-.7c-.6.5-1.3.8-2.2.8-1.4 0-2.4-.9-2.4-2.7 0-2.3 1.3-2.9 3.2-2.9h.9v-.2c0-.9-.6-1.2-1.6-1.2-.4 0-.9 0-1.5.1l-.3-1.9c.7-.2 1.6-.3 2.3-.3 2.6 0 3.4 1.4 3.4 3.5v5.3h-1.7zm-.6-3.6c-1.6 0-1.8.2-1.8.9 0 .5.3.7.8.7.4 0 .8-.2 1.1-.4v-1.2zM249.3 78.3l-.1-.6c-.6.5-1.4.8-2.1.8-1.9 0-3-1.5-3-4.4 0-2.3.6-4.6 3.2-4.6.5 0 1 .1 1.5.3v-3.4l2.4-.2v12.1h-1.9zm-.6-6.5c-.3-.1-.6-.2-.9-.2-1.1 0-1.2 1.3-1.2 2.4 0 1.7.5 2.2 1.1 2.2.3 0 .6-.1.9-.3v-4.1zM253.2 79.1c.8.2 1.4.3 2.1.3 1.3 0 1.6-.5 1.6-1.7-.5.3-1 .4-1.5.4-1.9 0-3-1.4-3-4.2 0-2.2.6-4.4 3.2-4.4.6 0 1.2.2 1.7.5l.1-.4 1.9.2v7.8c0 3.1-1.4 3.9-3.7 3.9-.7 0-1.7-.1-2.7-.4l.3-2zm3.6-7.3c-.3-.1-.6-.2-.9-.2-.9 0-1 1.2-1 2.2 0 1.6.4 2.1.9 2.1.3 0 .7-.1 1-.3v-3.8zM267 77.5c-.8.5-1.8.9-3 .9-2.5 0-3.8-1.8-3.8-4.5s1.1-4.4 3.4-4.4c2.4 0 3.5 1.7 3.1 5.2h-4.1c.1 1.3.9 1.6 1.7 1.6.6 0 1.4-.2 2-.5l.7 1.7zm-2.2-4.7c0-1-.5-1.3-1.1-1.3-.7 0-1 .3-1.1 1.3h2.2zM272.3 78.2c-.6.2-1.1.2-1.6.2-1.4 0-2.1-.6-2.1-3v-3.7h-1v-2.1h1v-1.8l2.4-.2v2h1.2v2.1H271v3.6c0 .6.2.8.6.8h.7v2.1zM273.5 75.9c.6.3 1.4.5 2 .5.4 0 .8-.1.8-.5s-.2-.6-1-1.1c-1.1-.6-1.8-1.4-1.8-2.6 0-1.6 1.1-2.6 2.8-2.6.8 0 1.7.2 2.4.8l-.9 1.8c-.3-.3-.8-.5-1.3-.5-.3 0-.6.1-.6.5s.2.6 1 1.1c1.1.7 1.8 1.2 1.8 2.6 0 1.8-1.2 2.8-3 2.8-.9 0-1.9-.2-2.9-.6l.7-2.2z"/></g></svg>