<!DOCTYPE svg PUBLIC "-//W3C//DTD SVG 1.1//EN" "http://www.w3.org/Graphics/SVG/1.1/DTD/svg11.dtd" [
	<!ENTITY ns_flows "http://ns.adobe.com/Flows/1.0/">
]><svg xmlns="http://www.w3.org/2000/svg" width="173" height="20" overflow="visible"><path fill="#FBFCFC" d="M0 .37h172.832v18.96H0z"/><path fill="#0355A0" d="M7.945 6.955c0-2.76-.303-3.982-1.715-3.982-1.69 0-1.84 1.7-1.84 6.664 0 5.63.175 7.09 1.94 7.09 1.54 0 1.767-1.885 1.767-4.832h4.086v.663c0 4.09-1.085 7.142-6.33 7.142C.428 19.7 0 15.426 0 9.717 0 4.857.278 0 6.255 0c3.733 0 5.776 1.7 5.776 6.16v.795H7.95zM13.95.37h4.238v15.347h6.13v3.61H13.95V.372zm11.757 0h4.237v18.96h-4.237V.37zm14.48 6.585c0-2.76-.304-3.982-1.716-3.982-1.69 0-1.84 1.7-1.84 6.664 0 5.63.18 7.09 1.945 7.09 1.54 0 1.766-1.885 1.766-4.832h4.086v.663c0 4.09-1.085 7.142-6.33 7.142-5.424 0-5.853-4.273-5.853-9.982 0-4.86.28-9.718 6.256-9.718 3.732 0 5.775 1.7 5.775 6.16v.795H40.19zM46.19.37h4.237v7.49h.05L54.44.37h4.565L54.29 8.55l5.296 10.778H54.82l-3.255-7.143-1.135 1.832v5.31h-4.237V.372zm28.303 12.32c.505-.77.63-1.646.706-2.522h3.582c-.127 2.15-.605 4.062-2.094 5.656l2.47 3.504h-4.464l-.807-1.168c-1.313.955-2.624 1.54-4.465 1.54-4.137 0-5.524-2.895-5.524-5.284 0-2.787 1.414-4.01 3.48-5.63-.73-.98-1.764-2.786-1.764-4.193 0-2.974 2.22-4.435 4.918-4.435 2.623 0 4.792 1.38 4.792 4.248 0 2.31-1.487 3.64-3.153 4.965l2.32 3.32zm-5.17-1.114c-1.035.77-1.49 1.566-1.49 2.495 0 1.198.985 2.34 2.272 2.34.73 0 1.438-.345 1.917-.956l-2.7-3.874zm1.008-4.833c.81-.717 1.566-1.434 1.566-2.603 0-.93-.68-1.486-1.463-1.486-.68 0-1.387.53-1.387 1.46 0 .93.68 1.806 1.286 2.63zm21.85.212c0-2.76-.305-3.982-1.717-3.982-1.69 0-1.842 1.7-1.842 6.664 0 5.63.18 7.09 1.944 7.09 1.537 0 1.766-1.885 1.766-4.832h4.087v.663c0 4.09-1.086 7.142-6.332 7.142-5.42 0-5.85-4.273-5.85-9.982 0-4.86.277-9.718 6.255-9.718 3.733 0 5.776 1.7 5.776 6.16v.795H92.18zM104.112 19.7c-5.574 0-6.33-3.823-6.33-9.85S98.54 0 104.113 0c5.98 0 6.33 4.593 6.33 9.85s-.352 9.85-6.33 9.85zm-.026-2.973c1.715 0 1.967-1.673 1.967-6.877 0-5.203-.252-6.877-1.967-6.877-1.69 0-1.916 1.674-1.916 6.877 0 5.204.23 6.877 1.92 6.877zM112.667.37h4.237v15.347h6.13v3.61h-10.368V.372zm11.678 0h4.238v15.347h6.13v3.61h-10.368V.372zm11.682 0h10.416v3.612h-6.18V7.78h5.803v3.61h-5.803v4.326h6.457v3.61h-10.693V.372zm20.153 6.585c0-2.76-.302-3.982-1.714-3.982-1.69 0-1.84 1.7-1.84 6.664 0 5.63.176 7.09 1.94 7.09 1.54 0 1.767-1.885 1.767-4.832h4.086v.663c0 4.09-1.088 7.142-6.33 7.142-5.428 0-5.856-4.273-5.856-9.982 0-4.858.277-9.717 6.254-9.717 3.734 0 5.777 1.7 5.777 6.16v.8h-4.087zm8.63-2.973h-3.783V.372h11.805v3.61h-3.783v15.346h-4.24V3.982z"/></svg>