<svg xmlns="http://www.w3.org/2000/svg" width="224.806" height="28.49" viewBox="0 0 224.806 28.49"><g fill="#FFF"><path d="M7.986 8.986c2.003-2.23 3.798-3.717 5.34-4.427.128.995.194 2.336.194 3.987 0 1.838.63 2.77 1.87 2.77 1.276 0 1.924-1.032 1.924-3.07 0-2.214-.093-3.782-.275-4.66-.45-2.02-1.463-3.042-3.013-3.042-2.207 0-4.916 1.72-8.05 5.11C3.032 8.78 1.207 11.55.55 13.882c-.365 1.24-.55 2.444-.55 3.58 0 2.394.86 4.226 2.56 5.443 1.467 1.064 3.473 1.604 5.96 1.604 2.694 0 5.02-.37 6.916-1.1.885-.347 1.333-.954 1.333-1.806 0-.504-.188-.946-.556-1.315-.5-.503-1.124-.648-1.894-.496-2.195.61-4.183.922-5.91.922-3.106 0-4.617-1.064-4.617-3.255 0-.785.127-1.654.377-2.582.464-1.607 1.748-3.59 3.816-5.892zM25.966 13.685c-.844 0-2.354 1.18-4.616 3.61-2.26 2.427-3.36 4.193-3.36 5.4 0 1.247.74 2.222 2.2 2.896 1.138.514 2.402.774 3.76.774 1.766 0 3.25-.468 4.412-1.39 1.17-.93 1.765-2.264 1.765-3.97 0-1.246-.37-2.713-1.102-4.358-.89-1.964-1.92-2.96-3.06-2.96zm-.354 4.8c.478.97.72 1.798.72 2.466 0 1.09-.788 1.62-2.408 1.62-.68 0-1.304-.106-1.862-.317.387-.608.952-1.272 1.682-1.978.348-.35.976-.953 1.868-1.79zM43.466 14.61c-1.037 0-2.534.615-4.452 1.826.07-.19.107-.396.107-.61 0-.54-.186-1-.554-1.37-.37-.367-.81-.554-1.315-.554-.58 0-1.06.216-1.43.643-.355.412-1.18 1.855-2.524 4.412-1.796 3.42-2.004 4.083-2.004 4.284 0 .506.187.948.554 1.315.367.368.81.555 1.315.555.467 0 .88-.157 1.225-.465 3.555-2.933 6.218-4.867 7.923-5.756-.167.694-.614 1.872-1.33 3.51-1.108 2.538-1.237 3.096-1.237 3.294 0 .507.198.95.585 1.317.385.367.835.553 1.34.553.93 0 1.538-.452 1.804-1.33 1.84-4.198 2.736-6.907 2.736-8.28.002-2.218-.92-3.342-2.74-3.342zM59.112 14.61c-1.037 0-2.534.615-4.452 1.826.07-.19.107-.396.107-.61 0-.54-.187-1-.555-1.37-.37-.367-.81-.554-1.315-.554-.58 0-1.062.216-1.43.643-.356.412-1.182 1.855-2.525 4.412-1.796 3.42-2.004 4.083-2.004 4.284 0 .506.187.948.554 1.315.367.368.81.555 1.315.555.466 0 .88-.157 1.224-.465 3.556-2.933 6.22-4.867 7.924-5.756-.167.694-.614 1.872-1.33 3.51-1.108 2.538-1.237 3.096-1.237 3.294 0 .507.197.95.584 1.317.386.367.836.553 1.34.553.93 0 1.54-.452 1.805-1.33 1.842-4.198 2.737-6.907 2.737-8.28.002-2.218-.92-3.342-2.74-3.342zM73.96 12.236c-.71-.522-1.596-.787-2.637-.787-2.203 0-4.203.8-5.945 2.375-1.746 1.58-2.63 3.5-2.63 5.708 0 2.2.65 4.17 1.933 5.854 1.4 1.88 3.176 2.83 5.28 2.83 1.855 0 2.796-.664 2.796-1.975 0-.49-.177-.92-.526-1.277-.35-.36-.766-.54-1.234-.54H69.96c-1.7 0-2.826-1.138-3.44-3.475 2.057-.23 3.896-.816 5.466-1.744 2.03-1.183 3.06-2.76 3.06-4.688 0-.982-.365-1.75-1.086-2.282zm-6.607 4.756c1.033-1.127 2.313-1.715 3.81-1.75-.71.766-1.99 1.353-3.81 1.75zM83.045 13.357c-1.74 0-3.47 1.062-5.14 3.154-1.665 2.085-2.51 4.055-2.51 5.857 0 1.27.5 2.354 1.487 3.23.98.87 2.138 1.31 3.436 1.31.995 0 2.058-.24 3.16-.72 1.314-.6 1.98-1.37 1.98-2.293 0-.502-.175-.944-.523-1.313-.35-.368-.766-.556-1.236-.556-.276 0-.776.183-1.53.56-.705.352-1.328.53-1.85.53-.614 0-1.06-.245-1.366-.75l-.036-.04c.022-.76.536-1.816 1.528-3.144.99-1.326 1.853-2.01 2.564-2.03.04.036.158.156.482.553.35.43.805.646 1.35.646.508 0 .934-.19 1.266-.562.33-.367.495-.808.495-1.31 0-.346-.08-.66-.23-.93-.747-1.452-1.867-2.19-3.328-2.19zM106.324 12.648c-.57 0-1.05.232-1.433.69-1.975.49-3.68.82-5.076.978 3.034-7.34 4.51-11.412 4.51-12.447 0-.505-.188-.947-.556-1.316-.368-.367-.81-.554-1.314-.554-1.16 0-1.808.606-1.924 1.81-.036.673-.785 2.823-2.226 6.39-.896 2.187-1.82 4.4-2.75 6.58-2.728.178-4.83.305-6.25.378-1.197.115-1.804.78-1.804 1.978 0 1.205.666 1.815 1.98 1.815.57 0 2.083-.086 4.5-.26-1.28 3.32-1.9 5.398-1.9 6.35 0 1.35.63 2.034 1.87 2.034.54 0 1.01-.196 1.397-.584.388-.39.565-.83.527-1.293v-.146c.78-2.603 1.557-4.87 2.307-6.74 2.75-.252 4.638-.49 5.61-.708 2.923-.667 4.405-1.702 4.405-3.077 0-.505-.187-.95-.554-1.318-.37-.37-.812-.56-1.316-.56zM134.018 12.648c-.812 0-1.4.39-1.75 1.158-1.77 3.998-3.205 6.7-4.266 8.04l-.512-4.332c-.412-2.144-1.278-3.23-2.576-3.23-.847 0-1.84.682-3.033 2.075-.044.044-.296.352-1.876 2.376.592-1.713.89-3.02.89-3.892 0-1.892-.848-2.85-2.522-2.85-.712 0-1.34.17-1.862.507-.655.387-.988.937-.988 1.635 0 1 .483 1.618 1.438 1.84-.174.548-.745 2.094-1.703 4.604-.812 2.178-1.207 3.654-1.207 4.514 0 1.602.757 2.414 2.25 2.414.994 0 2.38-1.066 4.242-3.264 1.1-1.397 2.225-2.853 3.352-4.328.18 1.784.41 3.05.685 3.766.56 1.67 1.555 2.52 2.953 2.52 1.55 0 3.207-1.47 5.066-4.494 1.16-1.833 2.228-4.006 3.175-6.467.076-.262.114-.51.114-.737 0-.5-.188-.94-.556-1.305s-.812-.55-1.316-.55zM146.737 11.083c0-.504-.186-.946-.555-1.315-.368-.367-.81-.554-1.314-.554h-.55c-.38-.362-.854-.546-1.413-.546-.504 0-.945.187-1.314.555-.367.368-.554.81-.554 1.315 0 .727.354 1.4 1.05 2.003.693.6 1.41.903 2.128.903.61 0 1.19-.24 1.72-.714.532-.477.803-1.032.803-1.647zM140.616 13.793c-1.125 0-1.754.606-1.87 1.804-.07.748-.427 1.956-1.055 3.592-.638 1.66-.96 2.968-.96 3.888 0 1.493.655 2.25 1.95 2.25.496 0 .934-.186 1.296-.554s.546-.81.546-1.314c0-.89.337-2.195 1-3.88.676-1.715 1.018-3.032 1.018-3.916 0-.504-.187-.946-.555-1.315-.368-.37-.83-.557-1.37-.557zM166.364 14.524c0-.505-.188-.95-.555-1.318-.37-.37-.813-.558-1.316-.558-.57 0-1.052.232-1.433.69-1.976.49-3.682.82-5.076.978 3.034-7.34 4.51-11.412 4.51-12.447 0-.505-.188-.947-.556-1.316-.37-.367-.81-.554-1.314-.554-1.16 0-1.81.606-1.925 1.81-.037.673-.785 2.823-2.227 6.39-.896 2.187-1.82 4.4-2.75 6.58-2.73.178-4.83.305-6.252.378-1.194.115-1.802.78-1.802 1.978 0 1.205.666 1.815 1.98 1.815.57 0 2.084-.086 4.5-.26-1.278 3.32-1.9 5.398-1.9 6.35 0 1.35.63 2.034 1.87 2.034.54 0 1.01-.196 1.398-.584.387-.39.564-.83.526-1.293v-.146c.78-2.603 1.558-4.87 2.307-6.74 2.75-.252 4.636-.49 5.61-.708 2.92-.667 4.404-1.703 4.404-3.078zM177.32 19.37c0-2.073-.77-3.124-2.29-3.124-.833 0-2.715 1.003-5.746 3.063 2.303-5.836 3.896-9.29 4.73-10.266.458-.458.69-.947.69-1.45 0-.502-.177-.952-.526-1.34-.353-.388-.77-.585-1.244-.585-.275 0-.553.078-.818.228-.842.382-2.297 2.926-4.448 7.778-2.146 4.84-3.19 7.826-3.19 9.128 0 1.422.67 2.143 1.99 2.143.69 0 1.914-.577 3.744-1.767l3.496-2.352c-.12.87-.18 1.498-.18 1.866 0 1.893.684 2.852 2.033 2.852.508 0 .934-.188 1.267-.56.328-.368.494-.81.494-1.31 0-.335-.07-.656-.217-.957.002-.396.038-.95.108-1.648.076-.74.11-1.298.11-1.702zM199.495 13.03c-.54 0-1.002.187-1.37.554-.368.368-.554.81-.554 1.315 0 1.092-.862 2.744-2.562 4.91-1.655 2.11-2.973 3.325-3.917 3.615-.2-.278-.302-.762-.302-1.438 0-.632.472-1.87 1.403-3.678.95-1.845 1.432-3.23 1.432-4.12 0-.505-.195-.948-.584-1.317-.386-.366-.837-.552-1.34-.552-1.124 0-1.753.626-1.868 1.855-.07.564-.562 1.715-1.46 3.42-.912 1.735-1.376 3.214-1.376 4.393 0 1.362.3 2.54.892 3.502.748 1.16 1.792 1.747 3.104 1.747 1.922 0 4.175-1.593 6.694-4.735 2.442-3.025 3.68-5.583 3.68-7.602 0-.504-.186-.946-.554-1.315-.37-.368-.81-.555-1.315-.555zM214.858 13.092c-1.246-.475-2.453-.716-3.588-.716-1.408 0-2.628.458-3.63 1.36-1.003.907-1.512 2.098-1.512 3.538 0 1.09.496 1.964 1.485 2.606.853.44 1.712.878 2.555 1.298-.326.544-.892 1.026-1.683 1.437-.85.44-1.655.664-2.396.664-.237 0-.54-.08-.905-.236-.395-.17-.732-.255-1.004-.255-.503 0-.946.186-1.314.553-.368.368-.554.81-.554 1.315 0 .812.463 1.454 1.38 1.913.74.334 1.565.503 2.452.503 1.727 0 3.456-.595 5.14-1.766 1.882-1.254 2.835-2.737 2.835-4.41 0-1.095-.497-1.974-1.49-2.62l-2.628-1.264c.184-.568.6-.845 1.268-.845.634 0 1.434.2 2.377.59.986.41 1.582.61 1.82.61.54 0 1.002-.187 1.37-.555.368-.368.554-.81.554-1.315 0-.998-.852-1.808-2.532-2.406zM224.173 9.526c-.423-.46-.968-.694-1.618-.694-.8 0-1.52.4-2.143 1.192-.615.782-.927 1.598-.927 2.422 0 .648.222 1.218.66 1.693.44.478.993.72 1.645.72.8 0 1.513-.4 2.117-1.193.596-.782.897-1.615.897-2.475.002-.647-.21-1.208-.63-1.666zM221.464 22.462c-.8 0-1.52.4-2.143 1.192-.613.782-.926 1.598-.926 2.422 0 .648.223 1.218.66 1.693.44.478.994.72 1.646.72.8 0 1.512-.4 2.116-1.193.596-.783.897-1.615.897-2.475 0-.648-.213-1.208-.633-1.666-.42-.46-.964-.694-1.616-.694z"/></g></svg>