<svg xmlns="http://www.w3.org/2000/svg" width="79.823" height="233" viewBox="0 0 79.823 233"><linearGradient id="a" gradientUnits="userSpaceOnUse" x1="39.912" y1="53.001" x2="39.912"><stop offset="0" stop-color="#085CA8"/><stop offset=".254" stop-color="#0863AE"/><stop offset=".673" stop-color="#0874BB"/><stop offset="1" stop-color="#1D81C4"/></linearGradient><path fill="url(#a)" d="M0 0h79.823v53H0z"/><path fill="#FFF" d="M79.823 0L53.226 17.736h-5.97L74 0h-2.975l-24.41 16.217V0h-2.678v21.202h35.886v-3.466H62.055L79.823 5.93"/><linearGradient id="b" gradientUnits="userSpaceOnUse" x1="-.675" y1="52.609" x2="84.768" y2="10.255"><stop offset="0" stop-color="#B12C2C"/><stop offset="1" stop-color="#CE3929"/></linearGradient><path fill="url(#b)" d="M26.73 35.328L0 53h6l26.65-17.672"/><linearGradient id="c" gradientUnits="userSpaceOnUse" x1="-4.802" y1="42.782" x2="80.566" y2=".464"><stop offset="0" stop-color="#B12C2C"/><stop offset="1" stop-color="#CE3929"/></linearGradient><path fill="url(#c)" d="M53.226 17.736L79.823 0H74L47.257 17.736"/><linearGradient id="d" gradientUnits="userSpaceOnUse" x1="-8.888" y1="19.899" x2="64.759" y2="-16.608"><stop offset="0" stop-color="#B12C2C"/><stop offset="1" stop-color="#CE3929"/></linearGradient><path fill="url(#d)" d="M26.73 17.736L0 0v3.993l20.726 13.743"/><linearGradient id="e" gradientUnits="userSpaceOnUse" x1="15.165" y1="69.622" x2="88.803" y2="33.119"><stop offset="0" stop-color="#B12C2C"/><stop offset="1" stop-color="#CE3929"/></linearGradient><path fill="url(#e)" d="M53.226 35.328L79.823 53v-3.98L59.178 35.327"/><path fill="#FFF" d="M35.968 0H33.29v16.217L8.88 0H0l26.73 17.736h-6.004L0 3.993v1.884l17.85 11.86H0V21.2h35.968M43.937 53h2.677V36.847L70.927 53h8.896L53.226 35.328h5.952l20.645 13.69v-1.884L62.055 35.328h17.768v-3.464H43.937M0 31.864v3.464h17.85L0 47.188V53l26.73-17.672h5.92L6 53H8.98L33.29 36.847V53h2.678V31.864"/><linearGradient id="f" gradientUnits="userSpaceOnUse" x1="-.592" y1="46.598" x2="80.503" y2="6.398"><stop offset="0" stop-color="#B12C2C"/><stop offset="1" stop-color="#CE3929"/></linearGradient><path fill="url(#f)" d="M43.937 0h-7.97v21.202H0v10.662h35.968V53h7.97V31.864h35.885V21.202H43.937"/><linearGradient id="g" gradientUnits="userSpaceOnUse" x1="-160.978" y1="790.565" x2="-160.978" y2="905.183" gradientTransform="matrix(1 0 0 -1 174.315 965.394)"><stop offset=".679" stop-color="#079B49"/><stop offset=".736" stop-color="#22A54E"/><stop offset=".846" stop-color="#6FB968"/><stop offset=".93" stop-color="#93C97B"/><stop offset=".976" stop-color="#A0D082"/></linearGradient><path fill="url(#g)" d="M.003 60.77v52.79H26.67V60.77H.003z"/><path fill="#FFF" d="M26.67 60.77h26.482v52.79H26.67z"/><g><linearGradient id="h" gradientUnits="userSpaceOnUse" x1="-107.829" y1="905.523" x2="-107.829" y2="790.907" gradientTransform="matrix(1 0 0 -1 174.315 965.394)"><stop offset="0" stop-color="#FDBA5D"/><stop offset=".066" stop-color="#F9A84C"/><stop offset=".172" stop-color="#F39337"/><stop offset=".278" stop-color="#F08327"/><stop offset=".381" stop-color="#EE7A22"/><stop offset=".479" stop-color="#EE7723"/></linearGradient><path fill="url(#h)" d="M53.152 60.77v52.79H79.82c-.042 0 0 0 0 0V60.77H53.152z"/></g><g><linearGradient id="i" gradientUnits="userSpaceOnUse" x1="39.912" y1="137.959" x2="39.912" y2="116.37"><stop offset=".182"/><stop offset=".296" stop-color="#060606"/><stop offset=".442" stop-color="#151515"/><stop offset=".605" stop-color="#303030"/><stop offset=".781" stop-color="#545454"/><stop offset=".965" stop-color="#838383"/><stop offset="1" stop-color="#8C8C8C"/></linearGradient><path fill="url(#i)" d="M0 120.114h79.823v17.666H0z"/><linearGradient id="j" gradientUnits="userSpaceOnUse" x1="39.912" y1="155.627" x2="39.912" y2="134.036"><stop offset="0" stop-color="#EB2227"/><stop offset="1" stop-color="#ED3B26"/></linearGradient><path fill="url(#j)" d="M0 137.78h79.823v17.668H0z"/><linearGradient id="k" gradientUnits="userSpaceOnUse" x1="39.912" y1="173.293" x2="39.912" y2="151.704"><stop offset="0" stop-color="#D5932A"/><stop offset=".099" stop-color="#D99D2A"/><stop offset=".289" stop-color="#E4BA29"/><stop offset=".414" stop-color="#EDD027"/><stop offset="1" stop-color="#F1E48C"/></linearGradient><path fill="url(#k)" d="M0 155.448h79.823v17.666H0z"/></g><linearGradient id="l" gradientUnits="userSpaceOnUse" x1="39.912" y1="233" x2="39.912" y2="180"><stop offset=".394" stop-color="#272762"/><stop offset=".48" stop-color="#30316A"/><stop offset=".645" stop-color="#474B82"/><stop offset=".849" stop-color="#6E75AE"/></linearGradient><path fill="url(#l)" d="M0 180h79.823v53H0z"/><g><path fill-rule="evenodd" clip-rule="evenodd" fill="#FCEE21" d="M39.96 185.8l.678 2.122h2.196l-1.775 1.312.677 2.125-1.777-1.313-1.778 1.312.68-2.126-1.778-1.312h2.197M48.77 188.134l.68 2.124h2.197l-1.778 1.312.678 2.123-1.777-1.312-1.777 1.313.678-2.123-1.774-1.312h2.196M55.245 194.78l.68 2.123h2.196l-1.776 1.312.678 2.125-1.777-1.313-1.778 1.313.68-2.125-1.778-1.312h2.196M57.533 203.752l.68 2.123h2.196l-1.778 1.313.68 2.123L57.53 208l-1.776 1.313.678-2.122-1.778-1.313h2.198M55.178 212.79l.68 2.123h2.197l-1.778 1.314.68 2.123-1.78-1.313-1.775 1.313.678-2.123-1.777-1.314H54.5M48.77 219.303l.68 2.123h2.197l-1.778 1.312.678 2.124-1.777-1.313-1.777 1.312.678-2.124-1.774-1.312h2.196M39.876 221.695l.68 2.123h2.197l-1.777 1.313.68 2.126-1.78-1.315-1.775 1.316.678-2.125L37 223.82H39.2M31.05 219.303l.678 2.123h2.198l-1.778 1.312.68 2.124-1.778-1.313-1.777 1.312.677-2.124-1.777-1.312h2.198M24.64 212.69l.68 2.123h2.197l-1.778 1.312.678 2.125-1.778-1.312-1.777 1.312.68-2.125-1.778-1.312h2.197M22.287 203.752l.677 2.123h2.2l-1.78 1.313.68 2.123L22.286 208l-1.778 1.313.678-2.122-1.777-1.313h2.198M24.577 194.812l.677 2.125h2.198l-1.778 1.313.68 2.123-1.777-1.312-1.78 1.313.68-2.123-1.777-1.313h2.196M31.05 188.232l.678 2.125h2.198l-1.778 1.313.68 2.123-1.778-1.313-1.777 1.313.677-2.123-1.777-1.313h2.198"/></g><g><linearGradient id="m" gradientUnits="userSpaceOnUse" x1="527.459" y1="77.781" x2="527.459" y2="24.739"><stop offset="0" stop-color="#085CA8"/><stop offset=".254" stop-color="#0863AE"/><stop offset=".673" stop-color="#0874BB"/><stop offset="1" stop-color="#1D81C4"/></linearGradient><path fill="url(#m)" d="M486.897 24.74h81.123v53.04h-81.123z"/><path fill="#FFF" d="M568.02 24.74l-27.03 17.75h-6.066l27.18-17.75h-3.024l-24.81 16.23V24.74h-2.72v21.218h36.47v-3.47h-18.057l18.058-11.814"/><linearGradient id="n" gradientUnits="userSpaceOnUse" x1="486.267" y1="77.494" x2="572.822" y2="34.588"><stop offset="0" stop-color="#B12C2C"/><stop offset="1" stop-color="#CE3929"/></linearGradient><path fill="url(#n)" d="M514.062 60.094L486.897 77.78h6.1l27.082-17.686"/><linearGradient id="o" gradientUnits="userSpaceOnUse" x1="482.243" y1="67.969" x2="568.721" y2="25.102"><stop offset="0" stop-color="#B12C2C"/><stop offset="1" stop-color="#CE3929"/></linearGradient><path fill="url(#o)" d="M540.99 42.49l27.03-17.75h-5.916l-27.18 17.75"/><linearGradient id="p" gradientUnits="userSpaceOnUse" x1="477.763" y1="44.874" x2="553.001" y2="7.578"><stop offset="0" stop-color="#B12C2C"/><stop offset="1" stop-color="#CE3929"/></linearGradient><path fill="url(#p)" d="M514.062 42.49l-27.165-17.75v3.995L507.96 42.49"/><linearGradient id="q" gradientUnits="userSpaceOnUse" x1="502.023" y1="94.952" x2="577.248" y2="57.663"><stop offset="0" stop-color="#B12C2C"/><stop offset="1" stop-color="#CE3929"/></linearGradient><path fill="url(#q)" d="M540.99 60.094l27.03 17.687v-3.984l-20.98-13.702"/><path fill="#FFF" d="M523.45 24.74h-2.72v16.23l-24.808-16.23h-9.025l27.165 17.75h-6.1l-21.065-13.755v1.886l18.142 11.87h-18.143v3.468h36.554M531.55 77.78h2.72V61.616l24.71 16.166h9.04l-27.03-17.686h6.05l20.98 13.702V71.91l-18.057-11.816h18.058v-3.466h-36.47M486.897 56.628v3.466h18.142l-18.143 11.87v5.817l27.165-17.686h6.017L492.996 77.78h3.024l24.71-16.165V77.78h2.72V56.63"/><linearGradient id="r" gradientUnits="userSpaceOnUse" x1="486.335" y1="71.665" x2="568.673" y2="30.849"><stop offset="0" stop-color="#B12C2C"/><stop offset="1" stop-color="#CE3929"/></linearGradient><path fill="url(#r)" d="M531.55 24.74h-8.1v21.218h-36.553v10.67h36.554V77.78h8.1V56.63h36.47v-10.67h-36.47"/></g><g><linearGradient id="s" gradientUnits="userSpaceOnUse" x1="326.138" y1="761.822" x2="326.138" y2="876.995" gradientTransform="matrix(1 0 0 -1 174.315 965.394)"><stop offset=".679" stop-color="#079B49"/><stop offset=".736" stop-color="#22A54E"/><stop offset=".846" stop-color="#6FB968"/><stop offset=".93" stop-color="#93C97B"/><stop offset=".976" stop-color="#A0D082"/></linearGradient><path fill="url(#s)" d="M486.9 88.96v53.045h27.102V88.96h-27.1z"/><path fill="#FFF" d="M514.002 88.96h26.914v53.045h-26.914z"/><g><linearGradient id="t" gradientUnits="userSpaceOnUse" x1="380.151" y1="877.336" x2="380.151" y2="762.168" gradientTransform="matrix(1 0 0 -1 174.315 965.394)"><stop offset="0" stop-color="#FDBA5D"/><stop offset=".066" stop-color="#F9A84C"/><stop offset=".172" stop-color="#F39337"/><stop offset=".278" stop-color="#F08327"/><stop offset=".381" stop-color="#EE7A22"/><stop offset=".479" stop-color="#EE7723"/></linearGradient><path fill="url(#t)" d="M540.916 88.96v53.045h27.102c-.043 0 0 0 0 0V88.96h-27.102z"/></g></g><linearGradient id="u" gradientUnits="userSpaceOnUse" x1="527.459" y1="173.4" x2="527.459" y2="151.793"><stop offset=".182"/><stop offset=".296" stop-color="#060606"/><stop offset=".442" stop-color="#151515"/><stop offset=".605" stop-color="#303030"/><stop offset=".781" stop-color="#545454"/><stop offset=".965" stop-color="#838383"/><stop offset="1" stop-color="#8C8C8C"/></linearGradient><path fill="url(#u)" d="M486.897 155.54h81.123v17.682h-81.123z"/><linearGradient id="v" gradientUnits="userSpaceOnUse" x1="527.459" y1="191.081" x2="527.459" y2="169.474"><stop offset="0" stop-color="#EB2227"/><stop offset="1" stop-color="#ED3B26"/></linearGradient><path fill="url(#v)" d="M486.897 173.22h81.123v17.682h-81.123z"/><linearGradient id="w" gradientUnits="userSpaceOnUse" x1="527.459" y1="208.761" x2="527.459" y2="187.155"><stop offset="0" stop-color="#D5932A"/><stop offset=".099" stop-color="#D99D2A"/><stop offset=".289" stop-color="#E4BA29"/><stop offset=".414" stop-color="#EDD027"/><stop offset="1" stop-color="#F1E48C"/></linearGradient><path fill="url(#w)" d="M486.897 190.902h81.123v17.68h-81.123z"/><linearGradient id="x" gradientUnits="userSpaceOnUse" x1="527.459" y1="278.772" x2="527.459" y2="225.731"><stop offset=".394" stop-color="#272762"/><stop offset=".48" stop-color="#30316A"/><stop offset=".645" stop-color="#474B82"/><stop offset=".849" stop-color="#6E75AE"/></linearGradient><path fill="url(#x)" d="M486.897 225.73h81.123v53.042h-81.123z"/><g><path fill-rule="evenodd" clip-rule="evenodd" fill="#FCEE21" d="M527.51 231.56l.687 2.122h2.233l-1.805 1.313.69 2.124-1.806-1.314-1.81 1.313.692-2.125-1.806-1.313h2.232M536.463 233.894l.69 2.124h2.233l-1.807 1.313.69 2.123-1.807-1.312-1.807 1.313.69-2.122-1.805-1.312h2.233M543.042 240.54l.69 2.123h2.233l-1.806 1.312.69 2.124-1.808-1.313-1.807 1.312.69-2.125-1.806-1.312h2.233M545.368 249.512l.69 2.123h2.233l-1.806 1.312.69 2.124-1.806-1.312-1.806 1.313.69-2.123-1.808-1.312h2.234M542.975 258.55l.69 2.123h2.233l-1.806 1.313.69 2.123-1.807-1.314-1.805 1.313.688-2.124-1.805-1.313h2.232M536.463 265.062l.69 2.124h2.233l-1.807 1.313.69 2.122-1.807-1.313-1.807 1.312.69-2.123-1.805-1.314h2.233M527.424 267.455l.69 2.123h2.234l-1.807 1.313.69 2.125-1.806-1.313-1.805 1.313.688-2.124-1.806-1.312h2.232M518.453 265.062l.69 2.124h2.233l-1.807 1.313.69 2.122-1.807-1.313-1.806 1.312.69-2.123-1.807-1.314h2.234M511.94 258.45l.69 2.123h2.233l-1.807 1.312.69 2.124-1.807-1.313-1.807 1.312.69-2.125-1.805-1.312h2.232M509.548 249.512l.688 2.122h2.235l-1.806 1.313.69 2.124-1.806-1.312-1.807 1.313.69-2.123-1.805-1.313h2.233M511.875 240.573l.688 2.123h2.234l-1.807 1.313.69 2.122-1.805-1.312-1.808 1.312.69-2.123-1.806-1.314h2.234M518.453 233.992l.69 2.125h2.233l-1.807 1.312.69 2.123-1.807-1.312-1.806 1.313.69-2.124-1.807-1.313h2.234"/></g></svg>