<!DOCTYPE svg PUBLIC "-//W3C//DTD SVG 1.1//EN" "http://www.w3.org/Graphics/SVG/1.1/DTD/svg11.dtd" [
	<!ENTITY ns_flows "http://ns.adobe.com/Flows/1.0/">
]><svg xmlns="http://www.w3.org/2000/svg" width="24" height="48" overflow="visible"><path fill="#fff" d="M9.713 3.906h4.963c.135 0 .244-.152.244-.34s-.11-.342-.244-.342H9.713c-.135 0-.244.152-.244.34s.106.342.24.342z"/><path d="M9.713 3.906h4.963c.135 0 .244-.152.244-.34s-.11-.342-.244-.342H9.713c-.135 0-.244.152-.244.34s.106.342.24.342z" fill="none"/><circle cx="12.194" cy="38.192" r="2.497" fill="none"/><path d="M1.98 6.427h20.457v27.816H1.98z" fill="none"/><path stroke="#C1C0C0" stroke-miterlimit="10" d="M20.36.5H4.03C2.08.5.5 2.203.5 4.303v34.514c0 2.102 1.582 3.804 3.53 3.804h16.33c1.947 0 3.53-1.7 3.53-3.8V4.302c0-2.1-1.583-3.803-3.53-3.803zM9.713 3.225h4.963c.135 0 .244.152.244.34s-.11.342-.244.342H9.713c-.135 0-.244-.152-.244-.34s.106-.342.24-.342z" fill="none"/><circle fill="#C1C0C0" cx="12.194" cy="38.192" r="2.497"/><path fill="#F2F2F2" stroke="#C1C0C0" stroke-miterlimit="10" d="M1.98 6.427h20.457v27.816H1.98z"/><linearGradient id="a" gradientUnits="userSpaceOnUse" x1="12.195" y1="48.16" x2="12.195" y2="42.62"><stop offset=".15" stop-color="#C1C0C0" stop-opacity="0"/><stop offset="1" stop-color="#C1C0C0" stop-opacity=".18"/></linearGradient><path fill="url(#a)" d="M23.89 48.16v-1.737c0-2.1-1.583-3.803-3.53-3.803H4.03C2.08 42.62.5 44.323.5 46.423v1.737h23.39z"/></svg>