<svg xmlns="http://www.w3.org/2000/svg" width="245.884" height="46" viewBox="0 0 245.884 46"><circle fill="#0355A0" cx="23" cy="23" r="23"/><path fill="#FFF" d="M38.315 14.245c-1.126.5-2.338.838-3.61.99 1.3-.778 2.295-2.01 2.764-3.478-1.215.72-2.56 1.243-3.992 1.525-1.146-1.222-2.78-1.985-4.587-1.985-3.47 0-6.283 2.814-6.283 6.285 0 .492.056.972.163 1.432-5.223-.262-9.854-2.764-12.953-6.566-.54.928-.85 2.008-.85 3.16 0 2.18 1.108 4.104 2.794 5.23-1.03-.033-1.998-.315-2.845-.786v.08c0 3.044 2.166 5.583 5.042 6.16-.528.145-1.083.22-1.656.22-.405 0-.798-.037-1.182-.11.8 2.496 3.12 4.312 5.87 4.363-2.15 1.686-4.86 2.69-7.805 2.69-.507 0-1.007-.03-1.5-.088 2.783 1.783 6.085 2.823 9.634 2.823 11.56 0 17.88-9.575 17.88-17.88 0-.272-.005-.544-.018-.813 1.227-.885 2.294-1.99 3.135-3.252z"/><circle fill="#0355A0" cx="222.884" cy="23" r="23"/><circle fill="#0355A0" cx="72.777" cy="23" r="23"/><path fill="#FFF" d="M79.756 17.707h-4.753V14.59c0-1.17.775-1.443 1.322-1.443h3.354V8l-4.62-.018c-5.13 0-6.296 3.838-6.296 6.295v3.43h-2.966v5.305h2.966V38.02h6.24V23.012h4.207l.546-5.305z"/><circle fill="#0355A0" cx="122.885" cy="23" r="23"/><path fill="#FFF" d="M132.563 22.294h-19.356c-3.077 0-5.57 2.496-5.57 5.572v4.478c0 3.076 2.494 5.57 5.57 5.57h19.356c3.076 0 5.57-2.494 5.57-5.57v-4.478c0-3.076-2.494-5.572-5.57-5.572zm-15.29 3.486h-1.798v8.94h-1.738v-8.94h-1.8v-1.52h5.337v1.52zm5.084 8.94h-1.542v-.845c-.287.312-.582.55-.89.713-.31.168-.607.247-.897.247-.357 0-.624-.114-.806-.346-.18-.23-.27-.573-.27-1.035v-6.453h1.54v5.922c0 .182.034.313.096.395.067.084.173.122.318.122.11 0 .256-.054.43-.16.175-.11.333-.248.48-.416v-5.863h1.54v7.718zm5.6-1.593c0 .546-.122.964-.364 1.257-.24.292-.592.437-1.05.437-.302 0-.57-.054-.806-.167-.236-.11-.46-.284-.66-.522v.592h-1.56V24.26h1.56v3.368c.21-.233.43-.414.66-.535.236-.124.474-.184.713-.184.488 0 .86.16 1.12.49s.386.812.386 1.443v4.284zm5.348-2.08h-2.95V32.5c0 .407.048.69.15.847.103.158.276.235.522.235.256 0 .434-.067.537-.2.1-.134.152-.426.152-.88v-.353h1.588v.395c0 .79-.19 1.387-.582 1.79-.385.397-.962.596-1.73.596-.69 0-1.237-.21-1.633-.635-.397-.42-.598-1.006-.598-1.75v-3.467c0-.668.22-1.217.656-1.638s.997-.63 1.688-.63c.707 0 1.25.194 1.63.584.378.392.567.95.567 1.684v1.97zm-2.263-2.886c-.246 0-.42.07-.527.214-.11.136-.16.368-.16.692v.78h1.363v-.78c0-.324-.055-.557-.162-.692-.105-.144-.278-.213-.514-.213zm-5.32-.025c-.11 0-.22.023-.327.074-.107.05-.213.13-.318.235v4.81c.125.123.248.22.365.273.12.054.242.083.373.083.19 0 .328-.054.417-.164.087-.11.133-.284.133-.53v-3.987c0-.264-.053-.46-.16-.595-.115-.133-.275-.2-.482-.2zm-9.98-8.523h1.955v-4.78l2.276-6.746h-1.987l-1.21 4.608h-.124l-1.27-4.608h-1.97l2.33 6.96v4.566zm6.88.215c.79 0 1.41-.207 1.86-.62.448-.417.673-.984.673-1.712v-4.393c0-.647-.23-1.18-.686-1.59-.462-.41-1.05-.617-1.77-.617-.79 0-1.418.195-1.885.585s-.7.912-.7 1.573v4.407c0 .723.228 1.296.682 1.725.456.427 1.065.642 1.825.642zm-.72-6.838c0-.186.066-.335.197-.452.134-.114.305-.17.517-.17.23 0 .416.056.558.17.14.117.21.267.21.45v4.634c0 .228-.068.407-.208.537-.138.13-.325.194-.56.194-.23 0-.407-.062-.53-.192-.123-.13-.185-.307-.185-.54V12.99zm5.876 6.746c.325 0 .66-.093 1.006-.27.35-.183.683-.448 1-.795v.942h1.737V11.11h-1.736v6.454c-.16.185-.34.336-.534.457-.196.12-.358.18-.485.18-.163 0-.283-.045-.354-.137-.07-.09-.11-.234-.11-.435V11.11h-1.734v7.106c0 .507.102.885.304 1.136.203.255.504.384.908.384z"/><g><circle fill="#0355A0" cx="172.885" cy="23" r="23"/><path fill-rule="evenodd" clip-rule="evenodd" fill="#FFF" d="M191.227 21.91c0-7.727-8.21-13.99-18.342-13.99s-18.344 6.264-18.344 13.99 8.214 13.99 18.345 13.99c.494 0 .98-.027 1.464-.056 2.012 2.478 5.273 5.195 9.478 4.242-1.76-1.768-2.735-3.742-3.28-5.478 6.3-2.215 10.68-7.06 10.68-12.698z"/><g fill="#0355A0"><path d="M159.327 26.392h1.54v-3.74h2.65V21.44h-2.65v-2.09h2.828v-1.21h-4.368M166.796 20.02c-2.156 0-2.18 1.365-2.19 3.488-.01 2.156.31 3.08 2.19 3.048 1.85.033 2.156-.892 2.146-3.048-.012-2.122-.023-3.487-2.146-3.487zm.715 4.347c0 .76-.054 1.09-.714 1.09-.693 0-.76-.33-.76-1.09V22.3c0-.584 0-1.178.76-1.178.715 0 .715.594.715 1.177v2.067zM171.58 21.287h-.02v-1.1h-1.375v6.204h1.43v-3.586c.022-.913.627-1.11 1.42-1.034v-1.693c-.21.01-.484-.012-.892.33-.21.176-.386.43-.562.88zM176.5 24.213c0 .484.01 1.243-.66 1.243-.19 0-.32-.065-.44-.197-.154-.243-.144-.552-.144-.826v-4.247h-1.43v4.753c0 1.034.253 1.617 1.386 1.617.693-.01 1.11-.353 1.33-1.09h.023v.925h1.364v-6.205h-1.432v4.026zM185.002 20.02c-.703 0-1.154.266-1.43.805h-.02c-.09-.583-.794-.814-1.322-.804-.463.023-1.045.122-1.365.805h-.02v-.64h-1.43v6.206h1.43v-4.08c0-.682.032-1.177.703-1.188.66-.012.704.45.704 1v4.27h1.43V22.31c0-.726.11-1.154.728-1.188.627-.033.682.517.682 1.078v4.19h1.43v-5.05c-.002-.658-.463-1.32-1.52-1.32z"/></g></g><g><path fill="#FFF" d="M240.476 20.22h-4.96v-4.96c0-.38-.31-.688-.69-.688h-1.41c-.382 0-.688.31-.688.688v4.96h-4.96c-.38 0-.69.31-.69.69v1.412c0 .38.31.687.69.687h4.96v4.963c0 .38.307.686.69.686h1.41c.378 0 .687-.308.687-.687V23.01h4.96c.38 0 .69-.308.69-.688V20.91c-.002-.38-.31-.69-.69-.69zM223.8 24.573c-1.044-.738-1.993-1.822-2.01-2.155 0-.607.054-.896 1.413-1.956 1.76-1.377 2.73-3.187 2.73-5.1 0-1.732-.53-3.273-1.435-4.355h.7c.146 0 .287-.045.403-.13l1.955-1.414c.24-.172.342-.482.25-.766-.092-.282-.354-.476-.654-.476h-8.728c-.955 0-1.926.168-2.878.496-3.183 1.097-5.407 3.808-5.407 6.59 0 3.944 3.057 6.933 7.14 7.026-.08.312-.12.62-.12.923 0 .606.153 1.183.47 1.74h-.112c-3.892 0-7.404 1.908-8.738 4.75-.348.74-.525 1.487-.525 2.226 0 .716.186 1.407.546 2.055.84 1.5 2.638 2.663 5.07 3.277 1.258.318 2.606.48 4.008.48 1.26 0 2.46-.165 3.57-.485 3.46-1.005 5.696-3.552 5.696-6.492 0-2.822-.908-4.51-3.343-6.233zm-9.154-9.372c-.19-1.443.113-2.742.832-3.562.465-.53 1.073-.81 1.757-.81h.076c1.93.057 3.776 2.207 4.117 4.794.19 1.448-.132 2.81-.86 3.64-.465.53-1.064.81-1.775.81h-.032c-1.89-.057-3.777-2.29-4.114-4.872zm3.21 19.812c-2.85 0-5.083-1.748-5.083-3.98 0-2.053 2.608-3.854 5.58-3.854h.08c.646.008 1.278.104 1.872.285.203.142.4.275.59.403 1.378.938 2.287 1.56 2.54 2.552.06.25.09.5.09.742 0 2.557-1.907 3.852-5.668 3.852z"/></g></svg>