<!DOCTYPE svg PUBLIC "-//W3C//DTD SVG 1.1//EN" "http://www.w3.org/Graphics/SVG/1.1/DTD/svg11.dtd" [
	<!ENTITY ns_flows "http://ns.adobe.com/Flows/1.0/">
]><svg xmlns="http://www.w3.org/2000/svg" width="44" height="32" viewBox="-2 0 44 32" overflow="visible"><path fill="#C1C0C0" d="M0 0v26.96h39.917V0H0zm11.27 25.958V13.542h8.19V25.96h-8.19zm9.188 0V13.542h8.188V25.96h-8.188zm18.458 0h-9.27V12.542H10.268V25.96H1V4.04h37.916v21.916zm0-22.916H1V1h37.916v2.042zM34.896 5.5H5.02v5.583h29.876V5.5zm-1 4.583H6.02V6.5h27.876v3.583z"/><path fill="#F2F2F2" d="M6.02 6.5h27.876v3.583H6.02z"/><linearGradient id="a" gradientUnits="userSpaceOnUse" x1="19.959" y1="31.06" x2="19.959" y2="27.057"><stop offset=".15" stop-color="#C1C0C0" stop-opacity="0"/><stop offset="1" stop-color="#C1C0C0" stop-opacity=".18"/></linearGradient><path fill="url(#a)" d="M0 26.958h39.916v4.003H0z"/></svg>