<svg xmlns="http://www.w3.org/2000/svg" width="43.756" height="32.019"><path d="M10.818 0v6.062H2.105L0 15.472 1.06 25h4.35c.506 2.006 2.31 3.5 4.47 3.5s3.966-1.494 4.472-3.5h15.184c.506 2.006 2.31 3.5 4.47 3.5s3.966-1.494 4.472-3.5h5.28V0h-32.94zm2.675 24c-.013.35-.08.683-.185 1-.477 1.447-1.824 2.5-3.428 2.5S6.93 26.447 6.453 25c-.105-.317-.172-.65-.185-1 0-.042-.013-.082-.013-.125 0-1.998 1.626-3.625 3.625-3.625s3.625 1.627 3.625 3.625c0 .042-.01.083-.012.125zm24.125 0c-.013.35-.08.683-.185 1-.477 1.447-1.824 2.5-3.428 2.5s-2.95-1.053-3.428-2.5c-.105-.317-.172-.65-.185-1 0-.042-.013-.082-.013-.125 0-1.998 1.623-3.625 3.622-3.625s3.625 1.627 3.625 3.625c0 .042-.01.083-.012.125zm5.138 0h-4.138c0-.042.013-.082.013-.125 0-2.55-2.07-4.625-4.622-4.625s-4.625 2.075-4.625 4.625c0 .043.013.083.014.125h-14.9c0-.042.013-.082.013-.125 0-2.55-2.075-4.625-4.626-4.625S5.26 21.325 5.26 23.875c0 .043.01.083.012.125h-3.32l-.94-8.472 1.895-8.465h8.912V1h30.935v23zM3.07 15.188h8.748V8.975H4.46l-1.39 6.213zm7.748-5.213v4.212h-6.5l.943-4.212h5.56z" fill="#C1C0C0"/><linearGradient id="a" gradientUnits="userSpaceOnUse" x1="22.407" y1="31.801" x2="22.407" y2="28.83"><stop offset="0" stop-color="#C1C0C0" stop-opacity="0"/><stop offset="1" stop-color="#C1C0C0" stop-opacity=".32"/></linearGradient><path fill="url(#a)" d="M43.756 32.02V32h-5.28c-.505-2.005-2.31-3.5-4.47-3.5s-3.965 1.495-4.47 3.5H14.35c-.506-2.005-2.31-3.5-4.47-3.5S5.915 29.995 5.41 32H1.06l-.003.02h42.7z"/></svg>