<svg xmlns="http://www.w3.org/2000/svg" viewBox="0 0 201.065 226.196" preserveAspectRatio="meet"><path fill-rule="evenodd" clip-rule="evenodd" fill="#4A4A4A" d="M34.913 110.004c-3.42 9.27-1.43 11.973 4.606 10.18l-.628 2.06-7.043 2.497-2.177-6.624.432-4.865 4.805-3.243z"/><linearGradient id="a" gradientUnits="userSpaceOnUse" x1="21.217" y1="4.803" x2="57.117" y2="107.496" gradientTransform="rotate(-21 -1.29 57.626)"><stop offset="0" stop-color="#fff"/><stop offset="1" stop-color="#7E7E7E"/></linearGradient><path fill-rule="evenodd" clip-rule="evenodd" fill="url(#a)" d="M119.874 110.915l-26.725-70.9C84.23 16.35 61.98 11.098 42.97 18.202c-18.83 7.034-32.312 25.443-23.248 49.49l15.692 41.63-1.022 2.364c-3.06 7.727-2.475 11.662 4.764 8.666l.354-.166.995 2.64-.684.878c-2.83 2.8-8.63 4.848-12.624 4.686l-1.072-.152L5.34 73.114c-12.617-33.47 7.27-59.98 32.255-69.312 25.082-9.358 57.463-2.296 69.935 30.79l26.727 70.9-14.383 5.423z"/><linearGradient id="b" gradientUnits="userSpaceOnUse" x1="58.726" y1="141.04" x2="48.446" y2="55.184" gradientTransform="rotate(-21 -1.29 57.626)"><stop offset="0" stop-color="#676767"/><stop offset="1" stop-color="#fff"/></linearGradient><path opacity=".58" fill-rule="evenodd" clip-rule="evenodd" fill="url(#b)" d="M131.63 109.72l-27.957-74.164C92.738 6.548 62.447 1.178 39.765 9.642c-22.67 8.47-41.938 32.34-30.89 61.648l21.4 56.77-.96.233-1.26.06L6.835 72.06C-5.375 39.672 13.512 14.28 38.07 5.12c24.544-9.167 55.548-2.42 67.642 29.667l27.957 74.167-2.04.767z"/><linearGradient id="c" gradientUnits="userSpaceOnUse" x1="59.148" y1="160.266" x2="49.748" y2="52.666" gradientTransform="rotate(-21 -1.29 57.626)"><stop offset="0" stop-color="#7E7E7E"/><stop offset="1" stop-color="#fff"/></linearGradient><path fill-rule="evenodd" clip-rule="evenodd" fill="url(#c)" d="M129.423 110.532l-27.826-73.82C79.447-22.05-11.075 11.195 11.365 70.727l21.407 56.79-1.16.35-1.73.32-21.27-56.423C-14.36 10.82 81.715-24.37 104.348 35.676l27.827 73.82-2.75 1.036z"/><linearGradient id="d" gradientUnits="userSpaceOnUse" x1="96.147" y1="72.261" x2="64.17" y2="94.084" gradientTransform="rotate(-21 -1.29 57.626)"><stop offset="0" stop-color="#fff"/><stop offset="1" stop-color="#010101"/></linearGradient><path opacity=".35" fill-rule="evenodd" clip-rule="evenodd" fill="url(#d)" d="M119.48 110.038L93.914 42.216c-9.267-24.582-32.078-30.24-50.668-23.307-18.52 6.912-32.02 26.1-22.656 50.94l14.854 39.404-1.052 2.428c-3.06 7.727-2.475 11.662 4.764 8.666l.4-.184.985 2.61-.72.925c-.94.932-2.222 1.78-3.64 2.496l-1.345.57L14.28 72.233C3.54 43.763 20.82 21.7 41.56 13.956c20.732-7.74 48.014-2.39 58.67 25.88l25.564 67.82-6.317 2.382z"/><linearGradient id="e" gradientUnits="userSpaceOnUse" x1="46.404" y1="-15.681" x2="56.456" y2="131.668" gradientTransform="rotate(-21 -1.29 57.626)"><stop offset="0" stop-color="#fff"/><stop offset="1" stop-color="#010101"/></linearGradient><path fill-rule="evenodd" clip-rule="evenodd" fill="url(#e)" d="M118.734 105.338l-24.83-65.875C75.844-8.447 1.37 18.92 19.66 67.448l15.77 41.836-1.04 2.402-.3.85-16.676-44.242C-1.31 18.617 77.688-10.328 96.14 38.62l24.83 65.875-2.236.843zm-80.077 19.307l-1.372-3.64.323-.08c.475-.157.993-.343 1.548-.573l.382-.176.99 2.63-.708.897-1.163.942z"/><linearGradient id="f" gradientUnits="userSpaceOnUse" x1="149.726" y1="164.029" x2="-55.712" y2="164.029" gradientTransform="rotate(-21 -1.29 57.626)"><stop offset="0" stop-color="#EED47A"/><stop offset=".06" stop-color="#A26A2E"/><stop offset=".15" stop-color="#E0BF68"/><stop offset=".32" stop-color="#B3812E"/><stop offset=".55" stop-color="#FCF1A6"/><stop offset=".77" stop-color="#B3812E"/><stop offset=".83" stop-color="#6D451B"/><stop offset="1" stop-color="#EED47A"/></linearGradient><path fill-rule="evenodd" clip-rule="evenodd" fill="url(#f)" d="M.3 112.364l38.528 102.21c1.02 2.704 4.337 3.966 7.397 2.81l125.893-47.454c3.06-1.154 4.72-4.29 3.7-6.996L137.292 60.726c-1.018-2.704-4.336-3.965-7.396-2.812L4 105.37c-3.06 1.152-4.72 4.29-3.7 6.994z"/><path opacity=".43" fill-rule="evenodd" clip-rule="evenodd" fill="#EDD47A" d="M15.502 107.84c-6.328 2.322-12.07 1.547-14.152.59l-.584-.39.13-.218c.69-1.062 1.767-1.95 3.104-2.453l125.893-47.46c1.338-.506 2.723-.547 3.95-.21l.376.116-.08.586c-.666 2.013-4.118 6.264-12.18 9.305L15.5 107.84z"/><linearGradient id="g" gradientUnits="userSpaceOnUse" x1="78.493" y1="216.592" x2="11.287" y2="216.592" gradientTransform="rotate(-21 -1.29 57.626)"><stop offset="0" stop-color="#B3812E"/><stop offset=".62" stop-color="#fff"/><stop offset="1" stop-color="#D6B869"/></linearGradient><path fill-rule="evenodd" clip-rule="evenodd" fill="url(#g)" d="M67.33 202.184l-.363-.963 70.01-26.39.364.967z"/><linearGradient id="h" gradientUnits="userSpaceOnUse" x1="54.167" y1="223.467" x2="54.167" y2="221.669" gradientTransform="rotate(-21 -1.29 57.626)"><stop offset="0" stop-color="#010101"/><stop offset="1" stop-color="#6D451B"/></linearGradient><path opacity=".32" fill-rule="evenodd" clip-rule="evenodd" fill="url(#h)" d="M53.04 207.422c-6.283 2.44-9.994 7.057-10.87 9.3l-.164.726.25.098c1.244.408 2.65.4 3.99-.104l125.893-47.457c1.333-.504 2.39-1.424 3.06-2.555l.19-.37-.458-.427c-1.88-1.215-7.374-2.38-15.44.658L53.04 207.427z"/><path opacity=".16" fill-rule="evenodd" clip-rule="evenodd" fill="#fff" d="M30.185 182.94c-3.06 1.152-4.294-2.69-5.317-5.402L.3 112.364c-.765-2.03-.017-4.3 1.684-5.797l.19-.146-1.277 1.407-.13.22.584.388c2.087.958 7.83 1.733 14.157-.59l106.456-40.13c8.067-3.04 11.52-7.29 12.183-9.304l.078-.585-.374-.115-1.895-.207.25-.02c2.267 0 4.327 1.213 5.09 3.244l10.61 28.146c1.02 2.704-.64 5.842-3.7 6.995C82.23 112 43.51 138.48 37.665 173.27c-.802 4.758-2.354 7.844-7.48 9.67zM131.875 57.5l-1.98.415c.57-.215 1.16-.352 1.73-.396l.25-.02zM2.238 106.363l.2-.148c.457-.344.98-.627 1.56-.846l-1.76.99z"/><linearGradient id="i" gradientUnits="userSpaceOnUse" x1="97.532" y1="110.967" x2="11.086" y2="110.967" gradientTransform="rotate(-21 -1.29 57.626)"><stop offset="0" stop-color="#D9BA70"/><stop offset=".62" stop-color="#fff"/><stop offset="1" stop-color="#D6B869"/></linearGradient><path fill-rule="evenodd" clip-rule="evenodd" fill="url(#i)" d="M30.076 103.352l-.364-.963 90.046-33.948.363.964z"/><g opacity=".21"><linearGradient id="j" gradientUnits="userSpaceOnUse" x1="100.967" y1="112.552" x2="100.967" y2="105.725" gradientTransform="rotate(-21 -1.29 57.626)"><stop offset="0" stop-color="#fff"/><stop offset="1" stop-color="#6D451B"/></linearGradient><path fill-rule="evenodd" clip-rule="evenodd" fill="url(#j)" d="M105.964 74.18l-2.402-6.372L118 62.366l2.4 6.372z"/></g><g opacity=".21"><linearGradient id="k" gradientUnits="userSpaceOnUse" x1="7.089" y1="112.551" x2="7.089" y2="105.726" gradientTransform="rotate(-21 -1.29 57.626)"><stop offset="0" stop-color="#fff"/><stop offset="1" stop-color="#6D451B"/></linearGradient><path fill-rule="evenodd" clip-rule="evenodd" fill="url(#k)" d="M18.126 107.29l-2.4-6.372 14.427-5.44 2.402 6.374z"/></g><g opacity=".74" fill-rule="evenodd" clip-rule="evenodd"><path opacity=".05" fill="#E3E3E3" d="M116.976 216.836c-46.42-.03-84.1 2.04-84.1 4.63 0 2.58 37.67 4.7 84.09 4.73 46.42.03 84.1-2.04 84.1-4.63 0-2.58-37.67-4.7-84.09-4.73z"/><path opacity=".05" fill="#ccc" d="M116.976 217.237c-44.3-.03-80.25 1.87-80.25 4.23 0 2.36 35.95 4.3 80.24 4.33 44.3.03 80.25-1.87 80.25-4.23s-35.95-4.3-80.24-4.33z"/><path opacity=".05" fill="#B0B0B0" d="M116.976 217.676c-42.38-.02-76.78 1.68-76.78 3.8 0 2.11 34.39 3.85 76.77 3.88 42.38.02 76.78-1.68 76.78-3.8 0-2.11-34.39-3.848-76.77-3.88z"/><path opacity=".05" fill="#999" d="M116.976 218.137c-40.07-.02-72.59 1.47-72.59 3.34 0 1.87 32.51 3.398 72.58 3.42 40.07.02 72.59-1.47 72.59-3.34 0-1.87-32.51-3.4-72.58-3.42z"/><path opacity=".05" fill="#7D7D7D" d="M116.985 218.536c-37.26-.02-67.5 1.3-67.5 2.94 0 1.65 30.24 3.01 67.5 3.02 37.26.02 67.5-1.3 67.5-2.938.01-1.65-30.24-3.013-67.5-3.022zm0 .82c-36.17-.01-65.53.94-65.53 2.13 0 1.2 29.36 2.17 65.53 2.19 36.17.01 65.53-.94 65.53-2.13 0-1.2-29.35-2.17-65.53-2.19zm0 1.05c-36.17 0-65.53.49-65.53 1.1s29.36 1.11 65.53 1.12c36.17 0 65.53-.49 65.53-1.1 0-.61-29.35-1.11-65.53-1.12z"/></g></svg>