<svg xmlns="http://www.w3.org/2000/svg" width="236.014" height="37.467" viewBox="0 0 236.014 37.467"><g fill="#333"><path d="M0 25.05V9.99h4.88c1.85 0 3.055.075 3.616.227.863.226 1.585.717 2.168 1.474.582.758.873 1.736.873 2.934 0 .925-.168 1.702-.503 2.332s-.762 1.125-1.28 1.484c-.516.36-1.042.6-1.576.714-.726.145-1.777.216-3.154.216H3.04v5.682H0zM3.04 12.54v4.273h1.665c1.2 0 2-.077 2.404-.235.403-.157.72-.404.95-.74.228-.334.343-.726.343-1.17 0-.55-.16-1-.483-1.357-.322-.355-.73-.578-1.223-.666-.363-.07-1.092-.104-2.188-.104H3.04zM16.17 17.47l-2.62-.474c.294-1.054.8-1.835 1.52-2.342s1.79-.76 3.207-.76c1.288 0 2.246.15 2.876.456.63.305 1.074.692 1.33 1.162.258.47.386 1.33.386 2.584l-.032 3.37c0 .958.046 1.665.14 2.12.09.455.264.943.518 1.464H20.64c-.076-.19-.168-.476-.277-.853-.048-.17-.083-.284-.103-.34-.493.48-1.02.84-1.582 1.08-.562.24-1.16.36-1.798.36-1.123 0-2.008-.307-2.656-.915-.647-.61-.97-1.38-.97-2.312 0-.616.146-1.166.44-1.648.295-.483.708-.852 1.24-1.11s1.295-.48 2.295-.673c1.348-.253 2.283-.49 2.804-.71v-.287c0-.555-.137-.95-.41-1.187-.275-.235-.792-.354-1.552-.354-.514 0-.915.102-1.202.303-.288.203-.52.557-.7 1.064zm3.864 2.342c-.37.123-.956.27-1.757.44-.802.173-1.326.34-1.572.505-.376.267-.565.605-.565 1.017 0 .404.15.754.452 1.048.3.295.685.44 1.15.44.52 0 1.018-.17 1.49-.513.35-.26.58-.58.688-.956.075-.246.113-.715.113-1.406v-.576zM24.35 14.142h3.07l2.61 7.746 2.548-7.746h2.99L31.714 24.64l-.688 1.9c-.253.638-.495 1.124-.725 1.46-.228.335-.492.608-.79.817-.298.207-.664.37-1.1.486-.434.117-.925.176-1.473.176-.555 0-1.1-.06-1.634-.177l-.257-2.26c.452.09.86.134 1.223.134.67 0 1.166-.197 1.49-.59.32-.396.567-.896.74-1.506l-4.15-10.938zM45.296 25.05l-3.452-10.908h2.805l2.043 7.15 1.88-7.15h2.784l1.818 7.15 2.085-7.15h2.846l-3.503 10.91H51.83l-1.88-7.018-1.85 7.017h-2.804zM59.628 12.66V9.99h2.887v2.67h-2.887zm0 12.39V14.143h2.887v10.91h-2.887zM70.477 14.142v2.3h-1.973v4.397c0 .89.02 1.408.057 1.556.038.146.124.27.258.364.133.096.296.144.488.144.267 0 .654-.092 1.16-.277l.248 2.24c-.67.287-1.43.432-2.28.432-.52 0-.99-.09-1.408-.264-.418-.175-.724-.4-.92-.677-.194-.28-.33-.654-.405-1.126-.06-.337-.092-1.015-.092-2.035v-4.757h-1.325v-2.3h1.325v-2.17l2.897-1.685v3.854h1.972zM75.356 9.99v5.537c.932-1.09 2.044-1.634 3.34-1.634.664 0 1.263.123 1.797.37.534.246.937.562 1.208.945.272.384.456.808.556 1.274.1.465.15 1.188.15 2.167v6.4h-2.888v-5.764c0-1.145-.055-1.87-.165-2.18-.11-.308-.303-.552-.58-.732-.278-.183-.626-.273-1.043-.273-.48 0-.908.117-1.285.35-.376.233-.652.585-.827 1.054-.175.47-.262 1.163-.262 2.08v5.466H72.47V9.99h2.886z"/></g><path fill-rule="evenodd" clip-rule="evenodd" fill="#009DE2" d="M191.542 0c4.593 0 8.828 2.49 8.25 8.698-.69 7.36-4.655 11.46-10.895 11.477h-5.44c-.786 0-1.163.638-1.37 1.95l-1.05 6.7c-.158 1.01-.677 1.51-1.444 1.51h-5.068c-.81 0-1.09-.517-.91-1.672l4.19-26.852c.204-1.32.71-1.81 1.606-1.81h12.132zm-8.255 14.373h4.13c2.58-.097 4.296-1.884 4.47-5.11.105-1.99-1.24-3.415-3.38-3.405l-3.888.018-1.333 8.497zm30.282 13.903c.462-.42.935-.64.866-.12l-.165 1.244c-.085.648.174.995.78.995h4.502c.757 0 1.127-.307 1.314-1.48L223.64 11.5c.14-.875-.072-1.304-.736-1.304h-4.95c-.446 0-.663.25-.78.932l-.184 1.072c-.096.56-.352.656-.59.094-.84-1.99-2.982-2.88-5.987-2.82-6.945.144-11.628 5.416-12.128 12.175-.39 5.227 3.36 9.332 8.295 9.332 3.583 0 5.185-1.07 6.99-2.706zM209.8 25.6c-2.988 0-5.072-2.383-4.638-5.307.435-2.923 3.228-5.308 6.218-5.308s5.073 2.385 4.64 5.308c-.437 2.924-3.23 5.308-6.22 5.308zm20.77 4.827h-5.195c-.414 0-.7-.323-.638-.72L229.307.78c.062-.396.452-.72.864-.72h5.198c.412 0 .7.324.637.72l-4.57 28.928c-.062.396-.45.72-.864.72z"/><path fill-rule="evenodd" clip-rule="evenodd" fill="#113984" d="M113.33 0c4.592 0 8.828 2.49 8.248 8.698-.687 7.36-4.653 11.46-10.892 11.477h-5.443c-.784 0-1.162.638-1.367 1.95l-1.05 6.7c-.16 1.01-.677 1.51-1.446 1.51h-5.068c-.81 0-1.09-.517-.91-1.672l4.19-26.852C99.796.49 100.3 0 101.196 0h12.133zm-8.256 14.373h4.13c2.58-.097 4.296-1.884 4.47-5.11.105-1.99-1.24-3.415-3.38-3.405l-3.888.018-1.332 8.497zm30.282 13.903c.463-.42.936-.64.866-.12l-.164 1.244c-.086.648.173.995.777.995h4.503c.758 0 1.128-.307 1.314-1.48l2.774-17.415c.14-.875-.072-1.304-.736-1.304h-4.95c-.447 0-.663.25-.78.932l-.184 1.072c-.096.56-.352.656-.59.094-.84-1.99-2.982-2.88-5.987-2.82-6.947.144-11.63 5.416-12.13 12.175-.388 5.227 3.36 9.332 8.296 9.332 3.583 0 5.186-1.07 6.99-2.706zm-3.77-2.675c-2.987 0-5.07-2.383-4.637-5.307.434-2.923 3.227-5.308 6.217-5.308s5.073 2.385 4.64 5.308c-.436 2.924-3.23 5.308-6.22 5.308zm22.66-15.46h-4.55c-.942 0-1.325.69-1.025 1.567l5.67 16.602-5.586 7.895c-.467.66-.107 1.262.55 1.262h5.134c.766 0 1.14-.195 1.525-.75l17.436-25.01c.536-.77.282-1.576-.6-1.577l-4.85-.005c-.835 0-1.17.328-1.647 1.02l-7.272 10.552-3.235-10.57c-.2-.65-.674-.987-1.55-.987z"/></svg>