<svg xmlns="http://www.w3.org/2000/svg" viewBox="0 0 97.873 97.873" preserveAspectRatio="meet"><path d="M15.728 44.063v-.927c0-5.72 2.742-8.58 8.226-8.58 6.205 0 7.9 3.505 7.9 7.976 0 4.27-.865 5.92-4.04 9.264-2.49 2.7-4.365 4.43-4.98 6.04h9.057v5.237H15.587c0-6.767 3.607-10.674 5.77-12.848 4.366-4.31 4.44-5.52 4.44-7.653 0-2.256-.397-3.746-2.13-3.746-2.31 0-2.31 3.06-2.31 5.236H15.73zM33.91 52.32l8.3-17.2h6.493v17.2h2.38v5.236h-2.38v5.518h-5.628v-5.518H33.91V52.32zm9.165-9.546h-.072L38.71 52.32h4.365v-9.546zm16.813-9.022h4.906L56.568 63.64h-4.906l8.226-29.888zm5.844 7.088v-5.718h16.27v5.035c-3.93 6.646-6.637 16.595-6.926 22.918H68.8c.396-6.564 3.715-16.836 7.395-22.233H65.732zM48.937 0v9.355c21.86 0 39.58 17.72 39.58 39.58s-17.72 39.582-39.58 39.582-39.58-17.72-39.58-39.58c0-15.368 8.763-28.68 21.56-35.236l3.16 5.706 7.603-16.9L23.32 0l3.054 5.508C10.704 13.668 0 30.048 0 48.938c0 27.025 21.91 48.936 48.937 48.936s48.937-21.91 48.937-48.937C97.874 21.91 75.964 0 48.937 0zm-1.2 0h3.222v16.072h-3.225zm-.48 81.895h3.222v9.545h-3.225zM7.47 26.275l.845-1.443 9.667 5.662-.845 1.443zm70.974 41.597l.845-1.443 9.663 5.66-.845 1.44zm10.13-42.255l.816 1.46-9.777 5.47-.816-1.46zm-71.768 40.2l.817 1.457L7.85 72.75l-.817-1.46zM72.148 9.033l1.42.882-5.906 9.518-1.42-.882zM28.764 78.927l1.42.882-5.912 9.514-1.42-.882zm36.714 1.317l1.44-.845 5.67 9.66-1.44.845zM82.5 47.612h9.544v3.222H82.5zm-75.848 0h9.545v3.222H6.652z" fill="#EB2227"/></svg>