<!DOCTYPE svg PUBLIC "-//W3C//DTD SVG 1.1//EN" "http://www.w3.org/Graphics/SVG/1.1/DTD/svg11.dtd" [
	<!ENTITY ns_flows "http://ns.adobe.com/Flows/1.0/">
]><svg xmlns="http://www.w3.org/2000/svg" width="173" height="20" overflow="visible"><path fill="#CF2027" d="M7.945 6.956c0-2.76-.303-3.982-1.715-3.982-1.69 0-1.84 1.7-1.84 6.664 0 5.628.175 7.09 1.94 7.09 1.54 0 1.767-1.886 1.767-4.833h4.086v.663c0 4.09-1.085 7.142-6.33 7.142C.428 19.7 0 15.426 0 9.717 0 4.86.277 0 6.255 0c3.733 0 5.776 1.7 5.776 6.16v.796H7.95zM13.95.372h4.237v15.346h6.13v3.61H13.95V.373zm11.757 0h4.237V19.33h-4.237V.37zm14.48 6.584c0-2.76-.304-3.982-1.716-3.982-1.69 0-1.84 1.7-1.84 6.664 0 5.628.18 7.09 1.945 7.09 1.54 0 1.766-1.886 1.766-4.833h4.086v.663c0 4.09-1.085 7.142-6.33 7.142-5.424 0-5.853-4.273-5.853-9.982C32.243 4.858 32.52 0 38.5 0c3.732 0 5.775 1.7 5.775 6.16v.796H40.19zM46.19.372h4.238V7.86h.05L54.44.37h4.566l-4.718 8.18 5.297 10.78h-4.767l-3.254-7.144-1.135 1.832v5.31h-4.24V.373zM74.495 12.69c.504-.77.63-1.645.706-2.52h3.586c-.126 2.15-.605 4.06-2.093 5.655l2.473 3.504H74.7l-.808-1.17c-1.31.953-2.622 1.54-4.463 1.54-4.14 0-5.527-2.897-5.527-5.286 0-2.787 1.413-4.01 3.48-5.628-.733-.984-1.767-2.79-1.767-4.197 0-2.974 2.22-4.434 4.918-4.434 2.623 0 4.792 1.38 4.792 4.247 0 2.31-1.488 3.638-3.153 4.965l2.322 3.32zm-5.17-1.113c-1.035.77-1.49 1.566-1.49 2.495 0 1.194.985 2.337 2.272 2.337.73 0 1.438-.35 1.917-.96l-2.7-3.876zm1.008-4.833c.807-.717 1.564-1.434 1.564-2.602 0-.93-.68-1.486-1.463-1.486-.68 0-1.387.53-1.387 1.46s.68 1.805 1.286 2.628zm21.847.212c0-2.76-.304-3.982-1.716-3.982-1.69 0-1.842 1.7-1.842 6.664 0 5.628.177 7.09 1.942 7.09 1.538 0 1.766-1.886 1.766-4.833h4.087v.663c0 4.09-1.086 7.142-6.332 7.142-5.422 0-5.85-4.273-5.85-9.982 0-4.86.277-9.718 6.255-9.718 3.732 0 5.775 1.7 5.775 6.16v.796H92.18zM104.113 19.7c-5.574 0-6.33-3.822-6.33-9.85 0-6.027.756-9.85 6.33-9.85 5.978 0 6.33 4.593 6.33 9.85s-.353 9.85-6.33 9.85zm-.026-2.973c1.715 0 1.967-1.673 1.967-6.877s-.252-6.876-1.967-6.876c-1.69 0-1.917 1.673-1.917 6.876 0 5.204.228 6.877 1.917 6.877zm8.58-16.355h4.236v15.346h6.13v3.61h-10.367V.373zm11.678 0h4.238v15.346h6.13v3.61h-10.368V.373zm11.682 0h10.416v3.61h-6.18V7.78h5.802v3.61h-5.802v4.328h6.457v3.61h-10.693V.373zm20.155 6.584c0-2.76-.303-3.982-1.715-3.982-1.69 0-1.842 1.7-1.842 6.664 0 5.628.176 7.09 1.94 7.09 1.54 0 1.767-1.886 1.767-4.833h4.088v.663c0 4.09-1.086 7.142-6.332 7.142-5.423 0-5.852-4.273-5.852-9.982 0-4.858.277-9.717 6.255-9.717 3.737 0 5.78 1.7 5.78 6.16v.8h-4.085zm8.628-2.974h-3.782V.372h11.805v3.61h-3.783V19.33h-4.238V3.98z"/></svg>