<svg xmlns="http://www.w3.org/2000/svg" width="172.832" height="19.7"><path d="M7.945 6.956c0-2.76-.303-3.982-1.715-3.982-1.69 0-1.84 1.7-1.84 6.664 0 5.63.175 7.09 1.94 7.09 1.54 0 1.767-1.886 1.767-4.833h4.086v.664c0 4.082-1.085 7.14-6.33 7.14C.428 19.7 0 15.422 0 9.713 0 4.86.277 0 6.255 0c3.733 0 5.776 1.7 5.776 6.16v.796H7.95zM13.95.372h4.237v15.346h6.13v3.61H13.95V.372zm11.757 0h4.237V19.33h-4.237V.37zm14.48 6.584c0-2.76-.304-3.982-1.716-3.982-1.69 0-1.84 1.7-1.84 6.664 0 5.63.18 7.09 1.947 7.09 1.54 0 1.766-1.886 1.766-4.833h4.086v.664c0 4.082-1.086 7.14-6.33 7.14-5.425 0-5.854-4.278-5.854-9.987 0-4.86.278-9.718 6.256-9.718 3.733 0 5.776 1.7 5.776 6.16v.795H40.19zM46.19.372h4.238V7.86h.05L54.44.37h4.566l-4.718 8.18 5.297 10.78h-4.767l-3.254-7.143-1.135 1.832v5.31h-4.24V.37zM74.495 12.69c.504-.77.63-1.645.706-2.52h3.588c-.126 2.15-.605 4.06-2.093 5.654l2.473 3.504H74.7l-.808-1.168c-1.31.956-2.622 1.54-4.463 1.54-4.14 0-5.53-2.894-5.53-5.283 0-2.788 1.414-4.01 3.48-5.63-.732-.98-1.766-2.787-1.766-4.194 0-2.974 2.22-4.434 4.918-4.434 2.623 0 4.792 1.38 4.792 4.242 0 2.31-1.488 3.638-3.153 4.965l2.323 3.32zm-5.17-1.114c-1.035.77-1.49 1.566-1.49 2.496 0 1.194.985 2.336 2.272 2.336.73 0 1.438-.346 1.917-.956l-2.7-3.876zm1.008-4.832c.807-.717 1.564-1.434 1.564-2.602 0-.93-.68-1.486-1.463-1.486-.68 0-1.387.53-1.387 1.46s.68 1.805 1.286 2.628zm21.847.212c0-2.76-.304-3.982-1.716-3.982-1.69 0-1.84 1.7-1.84 6.664 0 5.63.175 7.09 1.94 7.09 1.54 0 1.766-1.886 1.766-4.833h4.086v.664c0 4.082-1.084 7.14-6.33 7.14-5.423 0-5.852-4.278-5.852-9.987 0-4.86.278-9.718 6.255-9.718 3.73 0 5.77 1.7 5.77 6.16v.795h-4.08zM104.112 19.7c-5.574 0-6.33-3.823-6.33-9.85S98.538 0 104.112 0c5.98 0 6.332 4.593 6.332 9.85s-.354 9.85-6.332 9.85zm-.025-2.973c1.715 0 1.968-1.672 1.968-6.876 0-5.2-.253-6.87-1.968-6.87-1.69 0-1.917 1.673-1.917 6.876 0 5.205.227 6.877 1.917 6.877zm8.58-16.355h4.236v15.346h6.13v3.61h-10.367V.372zm11.68 0h4.235v15.346h6.13v3.61h-10.366V.372zm11.68 0h10.417v3.61h-6.18V7.78h5.8v3.61h-5.8v4.328h6.457v3.61h-10.69V.372zm20.155 6.584c0-2.76-.303-3.982-1.715-3.982-1.69 0-1.842 1.7-1.842 6.664 0 5.63.176 7.09 1.94 7.09 1.54 0 1.767-1.886 1.767-4.833h4.087v.664c0 4.082-1.09 7.14-6.337 7.14-5.423 0-5.852-4.278-5.852-9.987 0-4.858.278-9.717 6.256-9.717 3.733 0 5.776 1.7 5.776 6.16v.796h-4.085zm8.628-2.974h-3.782V.372h11.804v3.61h-3.783V19.33h-4.24V3.98z" fill="#0355A0"/></svg>