<svg xmlns="http://www.w3.org/2000/svg" viewBox="0 0 834.906 109.264" preserveAspectRatio="meet"><path fill="#EC1C24" d="M640.514.165l-3.606 14.407h65.348l3.37-14.407h-65.112zm-10.79 43.36l-3.382 13.816h60.676l3.174-13.813h-59.526zm61.406 57.618h21.404L736.23.165h-21.205L691.13 101.143zM747.317 0h19.27l13.885 34.236L813.772 0h21.134L788.33 51.05l22.053 49.96h-20.04l-15.58-35.16-33.153 35.16h-22.057l47.96-52.737L747.317 0z"/><path fill="#0053A0" d="M668.164 19.367H635.77l-4.345 17.695h32.4zm-10.748 44l-8.674 37.63h-33.578l9.565-37.63zm-47.854 37.923s-34.016 3.515-56.26-30.247C541.134 52.56 538.23 1.557 586.645.2c12.543 0 48.133-.145 48.133-.145l-7.323 31.358s-23.407.11-33.384.11-14.53 6.52-14.53 13.558c0 7.04.926 20.64 24.086 25.965 7.885 1.812 13.697.195 13.697.195l-7.757 30.052zm-295.602 0s-34.015 3.515-56.256-30.247C245.53 52.56 242.63 1.557 291.04.2c12.545 0 22.77.194 22.77.194l6.203 31.02s-11.572.11-21.545.11c-9.975 0-14.53 6.52-14.53 13.558 0 7.04.925 20.64 24.083 25.96 7.887 1.813 13.7.196 13.7.196l-7.756 30.052zM123.365 70.65h38.508l-9.525 30.326H88.913L88.766.31h34.554zM166.718.31h72.24l8.205 30.92H205.11v4.7h35.9l-9.378 29.826H204.67v4.893h44.837l-9.524 30.323h-73.118zM0 .31h72.24l8.204 30.92H38.392v4.7h35.9l-9.378 29.826H37.95v4.893h44.842l-9.527 30.323H.145zm401.266 0h-81.674l5.678 30.883 17.713.005v69.698h35.088V31.202l17.116.004zm104.58-.127h35.16v100.823h-35.16z"/><path fill="#00539F" d="M404.78 35.67h34.714v64.492H404.78V35.67z"/><path fill="#0053A0" d="M516.496 109.264c-9.293-4.307-17.933-10.176-24.578-16.89-15.106-15.25-16.753-27.114-16.753-27.114s24.018-18.497 18.496-40.576C487.458-.123 472.49.344 448.52.344h-42.844L399.97 31.08s10.928-.02 22.644-.034c9.862-.017 20.437-.03 23.95.004 5.38.047 11.567.36 11.48 8.712-.073 7.12-15.706 15.607-15.706 15.607s-2.42 17.683 19.655 44.85c2.487 3.055 5.135 6.194 7.834 9.034l46.67.007z"/></svg>