<!DOCTYPE svg PUBLIC "-//W3C//DTD SVG 1.1//EN" "http://www.w3.org/Graphics/SVG/1.1/DTD/svg11.dtd" [
	<!ENTITY ns_flows "http://ns.adobe.com/Flows/1.0/">
]><svg xmlns="http://www.w3.org/2000/svg" width="147" height="20" overflow="visible"><path fill="#FBFCFC" d="M0 .4h146.7v19H0V.4z"/><path fill="#0355A0" d="M0 .372h10.417v3.61h-6.18V7.78h5.8v3.61h-5.8v7.94H0V.37zM18.062 19.7c-5.574 0-6.33-3.823-6.33-9.85S12.486 0 18.06 0c5.978 0 6.33 4.593 6.33 9.85 0 5.256-.353 9.85-6.33 9.85zm-.026-2.973c1.715 0 1.967-1.673 1.967-6.876S19.75 2.98 18.036 2.98c-1.69 0-1.917 1.673-1.917 6.876s.223 6.877 1.913 6.877zM26.614.372h7.113c3.606 0 4.843 2.336 4.843 4.938 0 2.76-1.034 4.115-3.027 4.62v.053c2.725.425 2.825 2.177 2.9 4.726.076 3.74.228 4.11.808 4.38v.24h-4.56c-.328-.64-.454-1.7-.454-3.85 0-3.297-.43-3.987-1.766-3.987h-1.614v7.833H26.62V.37zm4.238 7.99h1.312c1.716 0 2.17-1.327 2.17-2.468 0-1.407-.505-2.39-2.195-2.39h-1.29v4.86zM47.654.372h6.28c4.188 0 5.98 2.283 5.98 8.868 0 6.876-.834 10.09-6.408 10.09h-5.852V.37zm4.238 15.664h1.135c1.942 0 2.648-.822 2.648-6.504 0-4.62-.353-5.868-2.598-5.868H51.89v12.372zM62.135.372h10.417v3.61h-6.18V7.78h5.802v3.61h-5.802v4.328h6.457v3.61H62.13V.373zm12.615 0h4.237v15.346h6.13v3.61h-10.37V.373zm11.754 0h4.238V19.33h-4.238V.372zm5.678 0h4.54l2.144 14.656h.05l2.17-14.656h4.54L101.54 19.33h-5.398L92.182.372zm14.808 0h10.417v3.61h-6.18V7.78h5.8v3.61h-5.8v4.328h6.457v3.61H106.99V.373zm12.614 0h7.113c3.605 0 4.842 2.336 4.842 4.938 0 2.76-1.037 4.115-3.03 4.62v.053c2.724.425 2.825 2.177 2.9 4.726.075 3.74.23 4.11.81 4.38v.24h-4.568c-.328-.64-.453-1.7-.453-3.85 0-3.297-.43-3.987-1.766-3.987h-1.615v7.833h-4.236V.37zm4.236 7.99h1.312c1.715 0 2.168-1.327 2.168-2.468 0-1.407-.504-2.39-2.193-2.39h-1.287v4.86zm13.573 3.506L132.85.37h4.69l2.018 7.037h.05L141.68.37h4.538l-4.564 11.498v7.46h-4.238v-7.46z"/></svg>