<svg xmlns="http://www.w3.org/2000/svg" width="146.216" height="19.701"><path d="M0 .372h10.417v3.61h-6.18V7.78h5.8v3.61h-5.8v7.94H0V.37zM18.062 19.7c-5.574 0-6.33-3.823-6.33-9.85 0-6.027.756-9.85 6.33-9.85 5.978 0 6.33 4.593 6.33 9.85s-.353 9.85-6.33 9.85zm-.026-2.974c1.715 0 1.967-1.672 1.967-6.876 0-5.204-.252-6.876-1.967-6.876-1.69 0-1.917 1.673-1.917 6.876 0 5.204.22 6.876 1.91 6.876zM26.614.372h7.113c3.606 0 4.843 2.336 4.843 4.938 0 2.76-1.034 4.115-3.027 4.62v.053c2.725.425 2.825 2.177 2.9 4.726.076 3.74.228 4.11.808 4.38v.24h-4.56c-.326-.64-.452-1.7-.452-3.85 0-3.298-.43-3.99-1.766-3.99H30.86v7.834h-4.24V.37zm4.238 7.99h1.312c1.716 0 2.17-1.327 2.17-2.468 0-1.407-.505-2.39-2.195-2.39h-1.29v4.86zM47.654.372h6.28c4.188 0 5.98 2.283 5.98 8.868 0 6.877-.834 10.09-6.408 10.09h-5.852V.37zm4.238 15.665h1.135c1.942 0 2.648-.823 2.648-6.505 0-4.62-.353-5.868-2.598-5.868H51.89v12.373zM62.135.372h10.417v3.61h-6.18V7.78h5.802v3.61h-5.802v4.33h6.457v3.61h-10.7V.37zm12.615 0h4.236V15.72h6.13v3.61H74.748V.37zm11.755 0h4.237V19.33h-4.237V.37zm5.677 0h4.54l2.144 14.655h.05l2.17-14.655h4.54L101.54 19.33h-5.397L92.183.37zm14.808 0h10.416v3.61h-6.18V7.78h5.802v3.61h-5.802v4.33h6.457v3.61H106.99V.37zm12.614 0h7.113c3.606 0 4.843 2.336 4.843 4.938 0 2.76-1.034 4.115-3.027 4.62v.053c2.725.425 2.825 2.177 2.9 4.726.076 3.74.228 4.11.808 4.38v.24h-4.56c-.33-.64-.453-1.7-.453-3.85 0-3.298-.43-3.99-1.766-3.99h-1.614v7.834h-4.237V.37zm4.237 7.99h1.318c1.716 0 2.17-1.327 2.17-2.468 0-1.407-.505-2.39-2.195-2.39h-1.286v4.86zm13.577 3.508l-4.57-11.5h4.693l2.018 7.036h.05L141.676.37h4.54l-4.564 11.497v7.46h-4.238v-7.46z" fill="#0355A0"/></svg>