<svg xmlns="http://www.w3.org/2000/svg" viewBox="0 0 831.8 117.94" preserveAspectRatio="meet"><path fill="#0053A0" d="M6.53.166L0 35.498s47.52-.2 53.717-.03c6.198.167 13.23.415 13.23 10.045 0 11.396-18.103 17.994-18.103 17.994l.046 32.063s27.15-11.212 37.882-18.25c11.547-7.577 27.597-23.734 21.235-49.19C100.857-.467 82.88.497 55.25.497L6.53.167zM5.145 41.372h40.02v74.352H5.145z"/><path fill="#EC1C24" d="M601.86.176l-3.35 16.414h72.84L676.04.176z"/><path fill="#0053A0" d="M597.23 22.626l-5.368 20.092h34.496l6.37-20.092z"/><path fill="#EC1C24" d="M590.524 50.085l-3.848 15.74h66.81l4.86-15.74z"/><path fill="#0053A0" d="M586 72.693h35.003l-9.88 42.862H575.79z"/><path fill="#EC1C24" d="M666.21 115.728h22.276L717.804.068H696.04zM731.372 0h21.96l16.037 39.504L807.73.09h24.07l-53.476 58.564 25.125 56.926h-22.84l-17.74-40.065-37.78 40.065h-25.12l54.64-60.087L731.6.5z"/><path fill="#0053A0" d="M462.162 115.67L433.865.136h-40.357l-9.04 44.73L375.19.12h-40.105l-26.87 115.57h34.993l14.522-53.13 8.434 53.127h35.482l10.954-51.48 9.877 51.46zM112.175.12v115.57l84.09.062v-40.03H152.13V.12zm124.997 62.877c0 10.212 8.51 18.41 18.73 18.41s18.68-8.282 18.68-18.498l.07-3.485V.033h40.023l-.022 59.162c0 32.442-26.304 58.745-58.75 58.745-32.45 0-58.75-26.303-58.75-58.745l-.01-58.727h40.023l-.028 58.736.034 3.793zm271.656 23.29h4.07c8.118 0 11.966-2.37 11.966-7.404 0-5.043-8.996-8.158-13.88-10.568V50.328c4.884-2.405 11.96-7.002 11.96-12.038 0-5.043-4.428-5.35-9.972-5.35l-1.12.034h-50.48L472.406.014 537.922.01c16.77 0 30.364 12.35 30.364 27.58 0 5.44-3.853 12.563-9.998 17.91 0 0-6.952 5.885-11.94 8.51 0 0 8.91 9.595 12.596 13.95 4.904 5.78 10.35 12.158 10.578 19.975.53 18.408-12.3 27.612-31.6 27.502h-28.718l-41.905-.14V40.14h40.02v46.107l1.505.04z"/></svg>