<svg id="Layer_1" xmlns="http://www.w3.org/2000/svg" viewBox="0 0 47 30"><style>.st0{fill:#FFFFFF;} .st1{fill:url(#SVGID_1_);} .st2{fill:url(#SVGID_2_);} .st3{fill:url(#SVGID_3_);} .st4{fill:url(#SVGID_4_);} .st5{fill:url(#SVGID_5_);} .st6{fill:url(#SVGID_6_);}</style><path class="st0" d="M0 0h47v30H0z"/><linearGradient id="SVGID_1_" gradientUnits="userSpaceOnUse" x1="23.498" y1="785.003" x2="23.498" y2="813.016" gradientTransform="matrix(1 0 0 -1 0 814)"><stop offset="0" stop-color="#0E5DA8"/><stop offset=".254" stop-color="#1264AE"/><stop offset=".673" stop-color="#1174BB"/><stop offset="1" stop-color="#1D82C5"/></linearGradient><path class="st1" d="M1 1h45v28H1z"/><path class="st0" d="M46 1l-15 9.4h-3.4L42.7 1H41L27.3 9.6V1h-1.5v11.2H46v-1.8H36l10-6.3z"/><linearGradient id="SVGID_2_" gradientUnits="userSpaceOnUse" x1=".745" y1="784.975" x2="48.276" y2="808.536" gradientTransform="matrix(1 0 0 -1 0 814)"><stop offset="0" stop-color="#B22E2C"/><stop offset="1" stop-color="#CE3A2A"/></linearGradient><path class="st2" d="M16.1 19.7L1 29h3.4l15-9.3z"/><linearGradient id="SVGID_3_" gradientUnits="userSpaceOnUse" x1="-1.196" y1="789.465" x2="46.289" y2="813.004" gradientTransform="matrix(1 0 0 -1 0 814)"><stop offset="0" stop-color="#B22E2C"/><stop offset="1" stop-color="#CE3A2A"/></linearGradient><path class="st3" d="M31 10.4L46 1h-3.3l-15.1 9.4z"/><linearGradient id="SVGID_4_" gradientUnits="userSpaceOnUse" x1="-4.241" y1="801.997" x2="38.162" y2="823.016" gradientTransform="matrix(1 0 0 -1 0 814)"><stop offset="0" stop-color="#B22E2C"/><stop offset="1" stop-color="#CE3A2A"/></linearGradient><path class="st4" d="M16.1 10.4L1 1v2.1l11.7 7.3z"/><linearGradient id="SVGID_5_" gradientUnits="userSpaceOnUse" x1="8.894" y1="774.998" x2="51.29" y2="796.014" gradientTransform="matrix(1 0 0 -1 0 814)"><stop offset="0" stop-color="#B22E2C"/><stop offset="1" stop-color="#CE3A2A"/></linearGradient><path class="st5" d="M31 19.7L46 29v-2.1l-11.6-7.2z"/><path class="st0" d="M21.3 1h-1.5v8.6L6 1H1l15.1 9.4h-3.4L1 3.1v1l10.1 6.3H1v1.8h20.3zM25.8 29h1.5v-8.5L41 29h5l-15-9.3h3.4L46 26.9v-1l-10-6.2h10v-1.9H25.8zM1 17.8v1.9h10.1L1 25.9V29l15.1-9.3h3.3L4.4 29h1.7l13.7-8.5V29h1.5V17.8z"/><linearGradient id="SVGID_6_" gradientUnits="userSpaceOnUse" x1=".755" y1="787.724" x2="46.293" y2="810.298" gradientTransform="matrix(1 0 0 -1 0 814)"><stop offset="0" stop-color="#B22E2C"/><stop offset="1" stop-color="#CE3A2A"/></linearGradient><path class="st6" d="M25.8 1h-4.5v11.2H1v5.6h20.3V29h4.5V17.8H46v-5.6H25.8z"/></svg>