<svg xmlns="http://www.w3.org/2000/svg" xmlns:xlink="http://www.w3.org/1999/xlink" width="43.241" height="37.678" viewBox="0 0 43.241 37.678"><path fill="#E20613" d="M0 0v32.663l21.62 5.015 21.62-5.015V0"/><path fill="#FFF" d="M1.293 1.3h40.655v15.693H1.293z"/><defs><path id="a" d="M0 0h43.24v37.678H0z"/></defs><clipPath id="b"><use xlink:href="#a" overflow="visible"/></clipPath><path clip-path="url(#b)" fill="#1D1D1B" d="M7.184 5.326h1.128v1.7H7.184v5.842c0 .462.08.7.604.7h.524v1.655h-1.43c-2.598 0-2.68-.7-2.68-2.355V7.025H3.42v-1.7h.785V3.092h2.98v2.236zM9.175 5.326h2.98v.462c.544-.358 1.107-.522 1.59-.522 1.55 0 2.014.864 2.014 2.445V9.365h-2.68V7.682c0-.372-.12-.55-.42-.55-.404 0-.504.148-.504.55v7.513h-2.98V5.326zM16.52 7.8c0-2.146.304-2.534 3.444-2.534 3 0 3.443.312 3.443 2.534v7.393h-2.96v-.448c-.583.343-1.167.507-1.852.507-1.812 0-2.074-.82-2.074-2.534v-.968c0-.924.263-1.296 1.33-1.758L20.43 8.86V7.353c0-.27-.14-.388-.424-.388-.442 0-.503.224-.503.596V8.68h-2.98V7.8zm2.98 4.174v1c0 .417.103.595.464.595.403 0 .464-.18.464-.597v-2.028c-.906.268-.927.493-.927 1.03M31.397 15.193h-2.98v-.477c-.523.358-1.087.522-1.67.522-1.975 0-2.236-1.073-2.236-2.712V7.71c0-1.58.505-2.444 2.236-2.444.584 0 1.147.163 1.672.52v-2.74h2.98v12.147zm-3.905-2.384c0 .372.08.55.463.55.342 0 .463-.164.463-.55V7.5c0-.207-.202-.356-.423-.356-.382 0-.503.15-.503.55v5.115zM39.39 11.57v1.15c0 2.19-.364 2.533-3.425 2.533-3 0-3.463-.298-3.463-2.534V7.8c0-2.145.303-2.533 3.442-2.533 3 0 3.444.312 3.444 2.534v2.773h-3.906v2.4c0 .417.1.596.462.596.303 0 .464-.15.464-.404V11.572h2.98zm-2.982-4.008c0-.403-.08-.596-.464-.596-.3 0-.462.134-.462.372v1.534h.926v-1.31z"/><path clip-path="url(#b)" fill="#FFF" d="M3.997 21.26h2.917v.458c.53-.356 1.084-.518 1.556-.518 1.518 0 1.97.856 1.97 2.42V25.26H7.82v-1.67c0-.368-.12-.545-.414-.545-.394 0-.493.146-.493.546v7.44H3.997v-9.77zM11.348 23.71c0-2.126.296-2.51 3.37-2.51 2.937 0 3.37.31 3.37 2.51v7.32h-2.897v-.443c-.57.34-1.142.502-1.812.502-1.774 0-2.03-.813-2.03-2.51v-.96c0-.914.256-1.283 1.3-1.74l2.524-1.123v-1.49c0-.266-.138-.384-.414-.384-.434 0-.493.222-.493.59v1.107h-2.917v-.87zm2.917 4.132v.99c0 .412.1.59.453.59.394 0 .454-.178.454-.59v-2.008c-.887.265-.907.487-.907 1.018M22.562 21.26h1.104v1.683h-1.104v5.785c0 .458.08.694.592.694h.513v1.638h-1.4c-2.542 0-2.62-.694-2.62-2.332v-5.785h-.77V21.26h.77v-2.214h2.916v2.214zM31.274 27.443v1.137c0 2.17-.354 2.51-3.35 2.51-2.938 0-3.392-.297-3.392-2.51v-4.87c0-2.126.296-2.51 3.37-2.51 2.938 0 3.37.31 3.37 2.51v2.744H27.45v2.377c0 .414.1.59.454.59.295 0 .453-.146.453-.397V27.443h2.917zm-2.917-3.97c0-.397-.08-.59-.453-.59-.296 0-.454.133-.454.37v1.52h.907v-1.3zM39.12 31.03H36.2v-.473c-.513.354-1.064.517-1.636.517-1.932 0-2.188-1.062-2.188-2.686V23.62c0-1.563.493-2.42 2.188-2.42.57 0 1.123.162 1.636.517v-2.715h2.917V31.03zm-3.825-2.36c0 .367.08.545.453.545.335 0 .454-.162.454-.546v-5.255c0-.206-.196-.354-.414-.354-.375 0-.493.148-.493.547v5.062z"/></svg>